<?xml version="1.0" encoding="us-ascii" standalone="no"?><svg xmlns="http://www.w3.org/2000/svg" xmlns:xlink="http://www.w3.org/1999/xlink" contentStyleType="text/css" height="512px" preserveAspectRatio="none" style="width:293px;height:512px;background:#FFFFFF;" version="1.1" viewBox="0 0 293 512" width="293px" zoomAndPan="magnify"><defs/><g><!--cluster Report Generator.lvlib--><g id="cluster_Report Generator.lvlib"><path d="M8.5,129 L184.5,129 A3.75,3.75 0 0 1 187,131.5 L194,151.2969 L283.5,151.2969 A2.5,2.5 0 0 1 286,153.7969 L286,502.55 A2.5,2.5 0 0 1 283.5,505.05 L8.5,505.05 A2.5,2.5 0 0 1 6,502.55 L6,131.5 A2.5,2.5 0 0 1 8.5,129 " fill="none" style="stroke:#000000;stroke-width:1.5;"/><line style="stroke:#000000;stroke-width:1.5;" x1="6" x2="194" y1="151.2969" y2="151.2969"/><text fill="#000000" font-family="sans-serif" font-size="14" font-weight="bold" lengthAdjust="spacing" textLength="175" x="10" y="143.9951">Report Generator.lvlib</text></g><!--cluster Docking.lvlibp--><g id="cluster_Docking.lvlibp"><path d="M79.5,6 L189.5,6 A3.75,3.75 0 0 1 192,8.5 L199,28.2969 L212.5,28.2969 A2.5,2.5 0 0 1 215,30.7969 L215,102.5 A2.5,2.5 0 0 1 212.5,105 L79.5,105 A2.5,2.5 0 0 1 77,102.5 L77,8.5 A2.5,2.5 0 0 1 79.5,6 " fill="none" style="stroke:#000000;stroke-width:1.5;"/><line style="stroke:#000000;stroke-width:1.5;" x1="77" x2="199" y1="28.2969" y2="28.2969"/><text fill="#000000" font-family="sans-serif" font-size="14" font-weight="bold" lengthAdjust="spacing" textLength="109" x="81" y="20.9951">Docking.lvlibp</text></g><!--class Report Generator--><g id="elem_Report Generator"><rect codeLine="8" fill="#FFFFFF" height="325.0469" id="Report Generator" rx="2.5" ry="2.5" style="stroke:#555555;stroke-width:0.5;" width="247" x="22.5" y="164"/><rect fill="#808080" height="32" rx="2.5" ry="2.5" style="stroke:#808080;stroke-width:0.5;" width="247" x="22.5" y="164"/><rect fill="#808080" height="2.5" style="stroke:#808080;stroke-width:0.5;" width="247" x="22.5" y="193.5"/><rect codeLine="8" fill="none" height="325.0469" id="Report Generator" rx="2.5" ry="2.5" style="stroke:#555555;stroke-width:0.5;" width="247" x="22.5" y="164"/><ellipse cx="81.25" cy="180" fill="#ADD1B2" rx="11" ry="11" style="stroke:#181818;stroke-width:1.0;"/><path d="M84.2188,185.6406 Q83.6406,185.9375 83,186.0781 Q82.3594,186.2344 81.6563,186.2344 Q79.1563,186.2344 77.8281,184.5937 Q76.5156,182.9375 76.5156,179.8125 Q76.5156,176.6875 77.8281,175.0312 Q79.1563,173.375 81.6563,173.375 Q82.3594,173.375 83,173.5312 Q83.6563,173.6875 84.2188,173.9844 L84.2188,176.7031 Q83.5938,176.125 83,175.8594 Q82.4063,175.5781 81.7813,175.5781 Q80.4375,175.5781 79.75,176.6562 Q79.0625,177.7187 79.0625,179.8125 Q79.0625,181.9062 79.75,182.9844 Q80.4375,184.0469 81.7813,184.0469 Q82.4063,184.0469 83,183.7812 Q83.5938,183.5 84.2188,182.9219 L84.2188,185.6406 Z " fill="#000000"/><text fill="#000000" font-family="sans-serif" font-size="14" lengthAdjust="spacing" textLength="121" x="101.75" y="184.8467">Report Generator</text><line style="stroke:#555555;stroke-width:0.5;" x1="23.5" x2="268.5" y1="196" y2="196"/><ellipse cx="33.5" cy="209.6484" fill="none" rx="3" ry="3" style="stroke:#038048;stroke-width:1.0;"/><text fill="#000000" font-family="sans-serif" font-size="14" lengthAdjust="spacing" textLength="119" x="42.5" y="212.9951">IsOpen : Boolean</text><rect fill="none" height="6" style="stroke:#C82930;stroke-width:1.0;" width="6" x="30.5" y="222.9453"/><text fill="#000000" font-family="sans-serif" font-size="14" lengthAdjust="spacing" textLength="155" x="42.5" y="229.292">Flush Notifier : NoType</text><line style="stroke:#555555;stroke-width:0.5;" x1="23.5" x2="268.5" y1="236.5937" y2="236.5937"/><ellipse cx="33.5" cy="250.2422" fill="#84BE84" rx="3" ry="3" style="stroke:#038048;stroke-width:1.0;"/><text fill="#000000" font-family="sans-serif" font-size="14" lengthAdjust="spacing" text-decoration="underline" textLength="178" x="42.5" y="253.5889">Periodically Flush Queue()</text><ellipse cx="33.5" cy="266.5391" fill="#84BE84" rx="3" ry="3" style="stroke:#038048;stroke-width:1.0;"/><text fill="#000000" font-family="sans-serif" font-size="14" lengthAdjust="spacing" text-decoration="underline" textLength="194" x="42.5" y="269.8857">Toggle Report Open Close()</text><rect fill="#F24D5C" height="6" style="stroke:#C82930;stroke-width:1.0;" width="6" x="30.5" y="279.8359"/><text fill="#000000" font-family="sans-serif" font-size="14" lengthAdjust="spacing" text-decoration="underline" textLength="142" x="42.5" y="286.1826">Create Report Path()</text><rect fill="#F24D5C" height="6" style="stroke:#C82930;stroke-width:1.0;" width="6" x="30.5" y="296.1328"/><text fill="#000000" font-family="sans-serif" font-size="14" lengthAdjust="spacing" text-decoration="underline" textLength="107" x="42.5" y="302.4795">Create Report()</text><rect fill="#F24D5C" height="6" style="stroke:#C82930;stroke-width:1.0;" width="6" x="30.5" y="312.4297"/><text fill="#000000" font-family="sans-serif" font-size="14" lengthAdjust="spacing" text-decoration="underline" textLength="187" x="42.5" y="318.7764">Parse and Log Event Data()</text><rect fill="#F24D5C" height="6" style="stroke:#C82930;stroke-width:1.0;" width="6" x="30.5" y="328.7266"/><text fill="#000000" font-family="sans-serif" font-size="14" lengthAdjust="spacing" text-decoration="underline" textLength="191" x="42.5" y="335.0732">Parse and Log Group Data()</text><rect fill="#F24D5C" height="6" style="stroke:#C82930;stroke-width:1.0;" width="6" x="30.5" y="345.0234"/><text fill="#000000" font-family="sans-serif" font-size="14" lengthAdjust="spacing" text-decoration="underline" textLength="221" x="42.5" y="351.3701">Parse and Log Multi-Chan Data()</text><rect fill="#F24D5C" height="6" style="stroke:#C82930;stroke-width:1.0;" width="6" x="30.5" y="361.3203"/><text fill="#000000" font-family="sans-serif" font-size="14" lengthAdjust="spacing" text-decoration="underline" textLength="161" x="42.5" y="367.667">Process Flushed Data()</text><polygon fill="#FFFF44" points="33.5,375.6172,37.5,379.6172,33.5,383.6172,29.5,379.6172" style="stroke:#B38D22;stroke-width:1.0;"/><text fill="#000000" font-family="sans-serif" font-size="14" lengthAdjust="spacing" textLength="100" x="42.5" y="383.9639">Close Report()</text><polygon fill="#FFFF44" points="33.5,391.9141,37.5,395.9141,33.5,399.9141,29.5,395.9141" style="stroke:#B38D22;stroke-width:1.0;"/><text fill="#000000" font-family="sans-serif" font-size="14" lengthAdjust="spacing" textLength="98" x="42.5" y="400.2607">Flush Report()</text><polygon fill="#FFFF44" points="33.5,408.2109,37.5,412.2109,33.5,416.2109,29.5,412.2109" style="stroke:#B38D22;stroke-width:1.0;"/><text fill="#000000" font-family="sans-serif" font-size="14" lengthAdjust="spacing" textLength="78" x="42.5" y="416.5576">Log Event()</text><polygon fill="#FFFF44" points="33.5,424.5078,37.5,428.5078,33.5,432.5078,29.5,428.5078" style="stroke:#B38D22;stroke-width:1.0;"/><text fill="#000000" font-family="sans-serif" font-size="14" lengthAdjust="spacing" textLength="99" x="42.5" y="432.8545">Open Report()</text><polygon fill="#FFFF44" points="33.5,440.8047,37.5,444.8047,33.5,448.8047,29.5,444.8047" style="stroke:#B38D22;stroke-width:1.0;"/><text fill="#000000" font-family="sans-serif" font-size="14" lengthAdjust="spacing" textLength="155" x="42.5" y="449.1514">Set Group Properties()</text><polygon fill="#FFFF44" points="33.5,457.1016,37.5,461.1016,33.5,465.1016,29.5,461.1016" style="stroke:#B38D22;stroke-width:1.0;"/><text fill="#000000" font-family="sans-serif" font-size="14" lengthAdjust="spacing" textLength="83" x="42.5" y="465.4482">Actor Core()</text><ellipse cx="33.5" cy="478.3984" fill="#84BE84" rx="3" ry="3" style="stroke:#038048;stroke-width:1.0;"/><text fill="#000000" font-family="sans-serif" font-size="14" lengthAdjust="spacing" textLength="104" x="42.5" y="481.7451">Post-Register()</text></g><!--class PrimeDock--><g id="elem_PrimeDock"><rect fill="#FFFFFF" height="48" id="PrimeDock" rx="2.5" ry="2.5" style="stroke:#555555;stroke-width:0.5;" width="107" x="92.5" y="41"/><rect fill="#808080" height="32" rx="2.5" ry="2.5" style="stroke:#808080;stroke-width:0.5;" width="107" x="92.5" y="41"/><rect fill="#808080" height="2.5" style="stroke:#808080;stroke-width:0.5;" width="107" x="92.5" y="70.5"/><rect fill="none" height="48" id="PrimeDock" rx="2.5" ry="2.5" style="stroke:#555555;stroke-width:0.5;" width="107" x="92.5" y="41"/><ellipse cx="107.5" cy="57" fill="#ADD1B2" rx="11" ry="11" style="stroke:#181818;stroke-width:1.0;"/><path d="M110.4688,62.6406 Q109.8906,62.9375 109.25,63.0781 Q108.6094,63.2344 107.9063,63.2344 Q105.4063,63.2344 104.0781,61.5937 Q102.7656,59.9375 102.7656,56.8125 Q102.7656,53.6875 104.0781,52.0312 Q105.4063,50.375 107.9063,50.375 Q108.6094,50.375 109.25,50.5312 Q109.9063,50.6875 110.4688,50.9844 L110.4688,53.7031 Q109.8438,53.125 109.25,52.8594 Q108.6563,52.5781 108.0313,52.5781 Q106.6875,52.5781 106,53.6562 Q105.3125,54.7187 105.3125,56.8125 Q105.3125,58.9062 106,59.9844 Q106.6875,61.0469 108.0313,61.0469 Q108.6563,61.0469 109.25,60.7812 Q109.8438,60.5 110.4688,59.9219 L110.4688,62.6406 Z " fill="#000000"/><text fill="#000000" font-family="sans-serif" font-size="14" lengthAdjust="spacing" textLength="75" x="121.5" y="61.8467">PrimeDock</text><line style="stroke:#555555;stroke-width:0.5;" x1="93.5" x2="198.5" y1="73" y2="73"/><line style="stroke:#555555;stroke-width:0.5;" x1="93.5" x2="198.5" y1="81" y2="81"/></g><!--reverse link PrimeDock to Report Generator--><g id="link_PrimeDock_Report Generator"><path codeLine="28" d="M146,107.49 C146,125.65 146,134.54 146,163.75 " fill="none" id="PrimeDock-backto-Report Generator" style="stroke:#181818;stroke-width:1.0;"/><polygon fill="none" points="146,89.49,140,107.49,152,107.49,146,89.49" style="stroke:#181818;stroke-width:1.0;"/></g><!--SRC=[ZPFDJiCm3CVlUGfhku1G4HSaD761ZW4I7mNs0YOrNKGQHucBXCRUdRGRrHWLcgD8hVsB4__ZH19mM5FqgEc5F0OK3Z1HyTsuzg-6t6ACbwZVgy2DAtEs2HZFElk3SIWfR93JpdQH6JlP02UTxG8tX2d7dmtFJjgXjcXXdoQyiWZNK9f0MWmxfTiiC7ecpq7WcXnrHHtR3sjU9xlk4IpLyisGBLTmT1iVFJcOm2Mp9NHz99lP9YxWWSKaJn8eVSu_FQbb51IZLx2iIHRS9Yae62wDHci_ORtkgQ663Ww7w3bNbINO7AlRFhSSX-ai3uJIqmNAOWzk62amH09q9Tnn1LSVv0IcABWFVPrknkzDtpTMJ9OlqFst9B2cT6-TO5Jsv0ymxbJPggWFh2KU2FHr_V9s4W_GB-afhEjAH_4Kn53y1Lpezcda76ZRVLHmbEoPAXE5GegebHfDMQSshTOjvoT5C3MrlX6SVsNP_hsfbFe6]--></g></svg>