<?xml version="1.0" encoding="us-ascii" standalone="no"?><svg xmlns="http://www.w3.org/2000/svg" xmlns:xlink="http://www.w3.org/1999/xlink" contentStyleType="text/css" height="569px" preserveAspectRatio="none" style="width:1282px;height:569px;background:#FFFFFF;" version="1.1" viewBox="0 0 1282 569" width="1282px" zoomAndPan="magnify"><defs/><g><!--cluster Configuration UI.lvlib--><g id="cluster_Configuration UI.lvlib"><path d="M8.5,129 L172.5,129 A3.75,3.75 0 0 1 175,131.5 L182,151.2969 L1272.5,151.2969 A2.5,2.5 0 0 1 1275,153.7969 L1275,437.36 A2.5,2.5 0 0 1 1272.5,439.86 L8.5,439.86 A2.5,2.5 0 0 1 6,437.36 L6,131.5 A2.5,2.5 0 0 1 8.5,129 " fill="none" style="stroke:#000000;stroke-width:1.5;"/><line style="stroke:#000000;stroke-width:1.5;" x1="6" x2="182" y1="151.2969" y2="151.2969"/><text fill="#000000" font-family="sans-serif" font-size="14" font-weight="bold" lengthAdjust="spacing" textLength="163" x="10" y="143.9951">Configuration UI.lvlib</text></g><!--cluster Actor Framework.lvlibp--><g id="cluster_Actor Framework.lvlibp"><path d="M450.5,6 L634.5,6 A3.75,3.75 0 0 1 637,8.5 L644,28.2969 L644.5,28.2969 A2.5,2.5 0 0 1 647,30.7969 L647,102.5 A2.5,2.5 0 0 1 644.5,105 L450.5,105 A2.5,2.5 0 0 1 448,102.5 L448,8.5 A2.5,2.5 0 0 1 450.5,6 " fill="none" style="stroke:#000000;stroke-width:1.5;"/><line style="stroke:#000000;stroke-width:1.5;" x1="448" x2="644" y1="28.2969" y2="28.2969"/><text fill="#000000" font-family="sans-serif" font-size="14" font-weight="bold" lengthAdjust="spacing" textLength="183" x="452" y="20.9951">Actor Framework.lvlibp</text></g><!--cluster Prime Panel.lvlibp--><g id="cluster_Prime Panel.lvlibp"><path d="M1053.5,6 L1193.5,6 A3.75,3.75 0 0 1 1196,8.5 L1203,28.2969 L1203.5,28.2969 A2.5,2.5 0 0 1 1206,30.7969 L1206,102.5 A2.5,2.5 0 0 1 1203.5,105 L1053.5,105 A2.5,2.5 0 0 1 1051,102.5 L1051,8.5 A2.5,2.5 0 0 1 1053.5,6 " fill="none" style="stroke:#000000;stroke-width:1.5;"/><line style="stroke:#000000;stroke-width:1.5;" x1="1051" x2="1203" y1="28.2969" y2="28.2969"/><text fill="#000000" font-family="sans-serif" font-size="14" font-weight="bold" lengthAdjust="spacing" textLength="139" x="1055" y="20.9951">Prime Panel.lvlibp</text></g><!--cluster Config.lvlibp--><g id="cluster_Config.lvlibp"><path d="M1074.5,463.86 L1172.5,463.86 A3.75,3.75 0 0 1 1175,466.36 L1182,486.1569 L1182.5,486.1569 A2.5,2.5 0 0 1 1185,488.6569 L1185,560.36 A2.5,2.5 0 0 1 1182.5,562.86 L1074.5,562.86 A2.5,2.5 0 0 1 1072,560.36 L1072,466.36 A2.5,2.5 0 0 1 1074.5,463.86 " fill="none" style="stroke:#000000;stroke-width:1.5;"/><line style="stroke:#000000;stroke-width:1.5;" x1="1072" x2="1182" y1="486.1569" y2="486.1569"/><text fill="#000000" font-family="sans-serif" font-size="14" font-weight="bold" lengthAdjust="spacing" textLength="97" x="1076" y="478.8551">Config.lvlibp</text></g><!--class Reset Msg--><g id="elem_Reset Msg"><rect codeLine="8" fill="#FFFFFF" height="80.5938" id="Reset Msg" rx="2.5" ry="2.5" style="stroke:#555555;stroke-width:0.5;" width="117" x="844.5" y="253.63"/><rect fill="#808080" height="32" rx="2.5" ry="2.5" style="stroke:#808080;stroke-width:0.5;" width="117" x="844.5" y="253.63"/><rect fill="#808080" height="2.5" style="stroke:#808080;stroke-width:0.5;" width="117" x="844.5" y="283.13"/><rect codeLine="8" fill="none" height="80.5938" id="Reset Msg" rx="2.5" ry="2.5" style="stroke:#555555;stroke-width:0.5;" width="117" x="844.5" y="253.63"/><ellipse cx="864.45" cy="269.63" fill="#ADD1B2" rx="11" ry="11" style="stroke:#181818;stroke-width:1.0;"/><path d="M867.4188,275.2706 Q866.8406,275.5675 866.2,275.7081 Q865.5594,275.8644 864.8563,275.8644 Q862.3563,275.8644 861.0281,274.2238 Q859.7156,272.5675 859.7156,269.4425 Q859.7156,266.3175 861.0281,264.6613 Q862.3563,263.005 864.8563,263.005 Q865.5594,263.005 866.2,263.1613 Q866.8563,263.3175 867.4188,263.6144 L867.4188,266.3331 Q866.7938,265.755 866.2,265.4894 Q865.6063,265.2081 864.9813,265.2081 Q863.6375,265.2081 862.95,266.2863 Q862.2625,267.3488 862.2625,269.4425 Q862.2625,271.5363 862.95,272.6144 Q863.6375,273.6769 864.9813,273.6769 Q865.6063,273.6769 866.2,273.4113 Q866.7938,273.13 867.4188,272.5519 L867.4188,275.2706 Z " fill="#000000"/><text fill="#000000" font-family="sans-serif" font-size="14" lengthAdjust="spacing" textLength="74" x="879.55" y="274.4767">Reset Msg</text><line style="stroke:#555555;stroke-width:0.5;" x1="845.5" x2="960.5" y1="285.63" y2="285.63"/><line style="stroke:#555555;stroke-width:0.5;" x1="845.5" x2="960.5" y1="293.63" y2="293.63"/><ellipse cx="855.5" cy="307.2784" fill="#84BE84" rx="3" ry="3" style="stroke:#038048;stroke-width:1.0;"/><text fill="#000000" font-family="sans-serif" font-size="14" lengthAdjust="spacing" text-decoration="underline" textLength="91" x="864.5" y="310.6251">Send Reset()</text><ellipse cx="855.5" cy="323.5753" fill="#84BE84" rx="3" ry="3" style="stroke:#038048;stroke-width:1.0;"/><text fill="#000000" font-family="sans-serif" font-size="14" lengthAdjust="spacing" textLength="30" x="864.5" y="326.922">Do()</text></g><!--class Add Device Msg--><g id="elem_Add Device Msg"><rect codeLine="16" fill="#FFFFFF" height="80.5938" id="Add Device Msg" rx="2.5" ry="2.5" style="stroke:#555555;stroke-width:0.5;" width="154" x="655" y="253.63"/><rect fill="#808080" height="32" rx="2.5" ry="2.5" style="stroke:#808080;stroke-width:0.5;" width="154" x="655" y="253.63"/><rect fill="#808080" height="2.5" style="stroke:#808080;stroke-width:0.5;" width="154" x="655" y="283.13"/><rect codeLine="16" fill="none" height="80.5938" id="Add Device Msg" rx="2.5" ry="2.5" style="stroke:#555555;stroke-width:0.5;" width="154" x="655" y="253.63"/><ellipse cx="674.95" cy="269.63" fill="#ADD1B2" rx="11" ry="11" style="stroke:#181818;stroke-width:1.0;"/><path d="M677.9188,275.2706 Q677.3406,275.5675 676.7,275.7081 Q676.0594,275.8644 675.3563,275.8644 Q672.8563,275.8644 671.5281,274.2238 Q670.2156,272.5675 670.2156,269.4425 Q670.2156,266.3175 671.5281,264.6613 Q672.8563,263.005 675.3563,263.005 Q676.0594,263.005 676.7,263.1613 Q677.3563,263.3175 677.9188,263.6144 L677.9188,266.3331 Q677.2938,265.755 676.7,265.4894 Q676.1063,265.2081 675.4813,265.2081 Q674.1375,265.2081 673.45,266.2863 Q672.7625,267.3488 672.7625,269.4425 Q672.7625,271.5363 673.45,272.6144 Q674.1375,273.6769 675.4813,273.6769 Q676.1063,273.6769 676.7,273.4113 Q677.2938,273.13 677.9188,272.5519 L677.9188,275.2706 Z " fill="#000000"/><text fill="#000000" font-family="sans-serif" font-size="14" lengthAdjust="spacing" textLength="111" x="690.05" y="274.4767">Add Device Msg</text><line style="stroke:#555555;stroke-width:0.5;" x1="656" x2="808" y1="285.63" y2="285.63"/><line style="stroke:#555555;stroke-width:0.5;" x1="656" x2="808" y1="293.63" y2="293.63"/><ellipse cx="666" cy="307.2784" fill="#84BE84" rx="3" ry="3" style="stroke:#038048;stroke-width:1.0;"/><text fill="#000000" font-family="sans-serif" font-size="14" lengthAdjust="spacing" text-decoration="underline" textLength="128" x="675" y="310.6251">Send Add Device()</text><ellipse cx="666" cy="323.5753" fill="#84BE84" rx="3" ry="3" style="stroke:#038048;stroke-width:1.0;"/><text fill="#000000" font-family="sans-serif" font-size="14" lengthAdjust="spacing" textLength="30" x="675" y="326.922">Do()</text></g><!--class Save Keys Msg--><g id="elem_Save Keys Msg"><rect codeLine="24" fill="#FFFFFF" height="80.5938" id="Save Keys Msg" rx="2.5" ry="2.5" style="stroke:#555555;stroke-width:0.5;" width="146" x="474" y="253.63"/><rect fill="#808080" height="32" rx="2.5" ry="2.5" style="stroke:#808080;stroke-width:0.5;" width="146" x="474" y="253.63"/><rect fill="#808080" height="2.5" style="stroke:#808080;stroke-width:0.5;" width="146" x="474" y="283.13"/><rect codeLine="24" fill="none" height="80.5938" id="Save Keys Msg" rx="2.5" ry="2.5" style="stroke:#555555;stroke-width:0.5;" width="146" x="474" y="253.63"/><ellipse cx="493.95" cy="269.63" fill="#ADD1B2" rx="11" ry="11" style="stroke:#181818;stroke-width:1.0;"/><path d="M496.9188,275.2706 Q496.3406,275.5675 495.7,275.7081 Q495.0594,275.8644 494.3563,275.8644 Q491.8563,275.8644 490.5281,274.2238 Q489.2156,272.5675 489.2156,269.4425 Q489.2156,266.3175 490.5281,264.6613 Q491.8563,263.005 494.3563,263.005 Q495.0594,263.005 495.7,263.1613 Q496.3563,263.3175 496.9188,263.6144 L496.9188,266.3331 Q496.2938,265.755 495.7,265.4894 Q495.1063,265.2081 494.4813,265.2081 Q493.1375,265.2081 492.45,266.2863 Q491.7625,267.3488 491.7625,269.4425 Q491.7625,271.5363 492.45,272.6144 Q493.1375,273.6769 494.4813,273.6769 Q495.1063,273.6769 495.7,273.4113 Q496.2938,273.13 496.9188,272.5519 L496.9188,275.2706 Z " fill="#000000"/><text fill="#000000" font-family="sans-serif" font-size="14" lengthAdjust="spacing" textLength="103" x="509.05" y="274.4767">Save Keys Msg</text><line style="stroke:#555555;stroke-width:0.5;" x1="475" x2="619" y1="285.63" y2="285.63"/><line style="stroke:#555555;stroke-width:0.5;" x1="475" x2="619" y1="293.63" y2="293.63"/><ellipse cx="485" cy="307.2784" fill="#84BE84" rx="3" ry="3" style="stroke:#038048;stroke-width:1.0;"/><text fill="#000000" font-family="sans-serif" font-size="14" lengthAdjust="spacing" text-decoration="underline" textLength="120" x="494" y="310.6251">Send Save Keys()</text><ellipse cx="485" cy="323.5753" fill="#84BE84" rx="3" ry="3" style="stroke:#038048;stroke-width:1.0;"/><text fill="#000000" font-family="sans-serif" font-size="14" lengthAdjust="spacing" textLength="30" x="494" y="326.922">Do()</text></g><!--class Select Instrument Msg--><g id="elem_Select Instrument Msg"><rect codeLine="32" fill="#FFFFFF" height="96.8906" id="Select Instrument Msg" rx="2.5" ry="2.5" style="stroke:#555555;stroke-width:0.5;" width="198" x="241" y="245.48"/><rect fill="#808080" height="32" rx="2.5" ry="2.5" style="stroke:#808080;stroke-width:0.5;" width="198" x="241" y="245.48"/><rect fill="#808080" height="2.5" style="stroke:#808080;stroke-width:0.5;" width="198" x="241" y="274.98"/><rect codeLine="32" fill="none" height="96.8906" id="Select Instrument Msg" rx="2.5" ry="2.5" style="stroke:#555555;stroke-width:0.5;" width="198" x="241" y="245.48"/><ellipse cx="260.95" cy="261.48" fill="#ADD1B2" rx="11" ry="11" style="stroke:#181818;stroke-width:1.0;"/><path d="M263.9188,267.1206 Q263.3406,267.4175 262.7,267.5581 Q262.0594,267.7144 261.3563,267.7144 Q258.8563,267.7144 257.5281,266.0738 Q256.2156,264.4175 256.2156,261.2925 Q256.2156,258.1675 257.5281,256.5113 Q258.8563,254.855 261.3563,254.855 Q262.0594,254.855 262.7,255.0113 Q263.3563,255.1675 263.9188,255.4644 L263.9188,258.1831 Q263.2938,257.605 262.7,257.3394 Q262.1063,257.0581 261.4813,257.0581 Q260.1375,257.0581 259.45,258.1363 Q258.7625,259.1988 258.7625,261.2925 Q258.7625,263.3863 259.45,264.4644 Q260.1375,265.5269 261.4813,265.5269 Q262.1063,265.5269 262.7,265.2613 Q263.2938,264.98 263.9188,264.4019 L263.9188,267.1206 Z " fill="#000000"/><text fill="#000000" font-family="sans-serif" font-size="14" lengthAdjust="spacing" textLength="155" x="276.05" y="266.3267">Select Instrument Msg</text><line style="stroke:#555555;stroke-width:0.5;" x1="242" x2="438" y1="277.48" y2="277.48"/><rect fill="none" height="6" style="stroke:#C82930;stroke-width:1.0;" width="6" x="249" y="288.1284"/><text fill="#000000" font-family="sans-serif" font-size="14" lengthAdjust="spacing" textLength="95" x="261" y="294.4751">Selected : I32</text><line style="stroke:#555555;stroke-width:0.5;" x1="242" x2="438" y1="301.7769" y2="301.7769"/><ellipse cx="252" cy="315.4253" fill="#84BE84" rx="3" ry="3" style="stroke:#038048;stroke-width:1.0;"/><text fill="#000000" font-family="sans-serif" font-size="14" lengthAdjust="spacing" text-decoration="underline" textLength="172" x="261" y="318.772">Send Select Instrument()</text><ellipse cx="252" cy="331.7222" fill="#84BE84" rx="3" ry="3" style="stroke:#038048;stroke-width:1.0;"/><text fill="#000000" font-family="sans-serif" font-size="14" lengthAdjust="spacing" textLength="30" x="261" y="335.0689">Do()</text></g><!--class Remove Device Msg--><g id="elem_Remove Device Msg"><rect codeLine="41" fill="#FFFFFF" height="80.5938" id="Remove Device Msg" rx="2.5" ry="2.5" style="stroke:#555555;stroke-width:0.5;" width="184" x="22" y="253.63"/><rect fill="#808080" height="32" rx="2.5" ry="2.5" style="stroke:#808080;stroke-width:0.5;" width="184" x="22" y="253.63"/><rect fill="#808080" height="2.5" style="stroke:#808080;stroke-width:0.5;" width="184" x="22" y="283.13"/><rect codeLine="41" fill="none" height="80.5938" id="Remove Device Msg" rx="2.5" ry="2.5" style="stroke:#555555;stroke-width:0.5;" width="184" x="22" y="253.63"/><ellipse cx="41.95" cy="269.63" fill="#ADD1B2" rx="11" ry="11" style="stroke:#181818;stroke-width:1.0;"/><path d="M44.9188,275.2706 Q44.3406,275.5675 43.7,275.7081 Q43.0594,275.8644 42.3563,275.8644 Q39.8563,275.8644 38.5281,274.2238 Q37.2156,272.5675 37.2156,269.4425 Q37.2156,266.3175 38.5281,264.6613 Q39.8563,263.005 42.3563,263.005 Q43.0594,263.005 43.7,263.1613 Q44.3563,263.3175 44.9188,263.6144 L44.9188,266.3331 Q44.2938,265.755 43.7,265.4894 Q43.1063,265.2081 42.4813,265.2081 Q41.1375,265.2081 40.45,266.2863 Q39.7625,267.3488 39.7625,269.4425 Q39.7625,271.5363 40.45,272.6144 Q41.1375,273.6769 42.4813,273.6769 Q43.1063,273.6769 43.7,273.4113 Q44.2938,273.13 44.9188,272.5519 L44.9188,275.2706 Z " fill="#000000"/><text fill="#000000" font-family="sans-serif" font-size="14" lengthAdjust="spacing" textLength="141" x="57.05" y="274.4767">Remove Device Msg</text><line style="stroke:#555555;stroke-width:0.5;" x1="23" x2="205" y1="285.63" y2="285.63"/><line style="stroke:#555555;stroke-width:0.5;" x1="23" x2="205" y1="293.63" y2="293.63"/><ellipse cx="33" cy="307.2784" fill="#84BE84" rx="3" ry="3" style="stroke:#038048;stroke-width:1.0;"/><text fill="#000000" font-family="sans-serif" font-size="14" lengthAdjust="spacing" text-decoration="underline" textLength="158" x="42" y="310.6251">Send Remove Device()</text><ellipse cx="33" cy="323.5753" fill="#84BE84" rx="3" ry="3" style="stroke:#038048;stroke-width:1.0;"/><text fill="#000000" font-family="sans-serif" font-size="14" lengthAdjust="spacing" textLength="30" x="42" y="326.922">Do()</text></g><!--class Configuration UI--><g id="elem_Configuration UI"><rect codeLine="49" fill="#FFFFFF" height="259.8594" id="Configuration UI" rx="2.5" ry="2.5" style="stroke:#555555;stroke-width:0.5;" width="262" x="997" y="164"/><rect fill="#808080" height="32" rx="2.5" ry="2.5" style="stroke:#808080;stroke-width:0.5;" width="262" x="997" y="164"/><rect fill="#808080" height="2.5" style="stroke:#808080;stroke-width:0.5;" width="262" x="997" y="193.5"/><rect codeLine="49" fill="none" height="259.8594" id="Configuration UI" rx="2.5" ry="2.5" style="stroke:#555555;stroke-width:0.5;" width="262" x="997" y="164"/><ellipse cx="1069.25" cy="180" fill="#ADD1B2" rx="11" ry="11" style="stroke:#181818;stroke-width:1.0;"/><path d="M1072.2188,185.6406 Q1071.6406,185.9375 1071,186.0781 Q1070.3594,186.2344 1069.6563,186.2344 Q1067.1563,186.2344 1065.8281,184.5938 Q1064.5156,182.9375 1064.5156,179.8125 Q1064.5156,176.6875 1065.8281,175.0313 Q1067.1563,173.375 1069.6563,173.375 Q1070.3594,173.375 1071,173.5313 Q1071.6563,173.6875 1072.2188,173.9844 L1072.2188,176.7031 Q1071.5938,176.125 1071,175.8594 Q1070.4063,175.5781 1069.7813,175.5781 Q1068.4375,175.5781 1067.75,176.6563 Q1067.0625,177.7188 1067.0625,179.8125 Q1067.0625,181.9063 1067.75,182.9844 Q1068.4375,184.0469 1069.7813,184.0469 Q1070.4063,184.0469 1071,183.7813 Q1071.5938,183.5 1072.2188,182.9219 L1072.2188,185.6406 Z " fill="#000000"/><text fill="#000000" font-family="sans-serif" font-size="14" lengthAdjust="spacing" textLength="109" x="1089.75" y="184.8467">Configuration UI</text><line style="stroke:#555555;stroke-width:0.5;" x1="998" x2="1258" y1="196" y2="196"/><ellipse cx="1008" cy="209.6484" fill="none" rx="3" ry="3" style="stroke:#038048;stroke-width:1.0;"/><text fill="#000000" font-family="sans-serif" font-size="14" lengthAdjust="spacing" textLength="236" x="1017" y="212.9951">Instrument Listbox : kLVObjListBox</text><ellipse cx="1008" cy="225.9453" fill="none" rx="3" ry="3" style="stroke:#038048;stroke-width:1.0;"/><text fill="#000000" font-family="sans-serif" font-size="14" lengthAdjust="spacing" textLength="221" x="1017" y="229.292">Keys Refnum : kLVObjMCListbox</text><ellipse cx="1008" cy="242.2422" fill="none" rx="3" ry="3" style="stroke:#038048;stroke-width:1.0;"/><text fill="#000000" font-family="sans-serif" font-size="14" lengthAdjust="spacing" textLength="229" x="1017" y="245.5889">Signal Refnum : kLVObjMCListbox</text><ellipse cx="1008" cy="258.5391" fill="none" rx="3" ry="3" style="stroke:#038048;stroke-width:1.0;"/><text fill="#000000" font-family="sans-serif" font-size="14" lengthAdjust="spacing" textLength="114" x="1017" y="261.8857">Config : LV Class</text><line style="stroke:#555555;stroke-width:0.5;" x1="998" x2="1258" y1="269.1875" y2="269.1875"/><ellipse cx="1008" cy="282.8359" fill="#84BE84" rx="3" ry="3" style="stroke:#038048;stroke-width:1.0;"/><text fill="#000000" font-family="sans-serif" font-size="14" lengthAdjust="spacing" text-decoration="underline" textLength="132" x="1017" y="286.1826">Select Instrument()</text><ellipse cx="1008" cy="299.1328" fill="#84BE84" rx="3" ry="3" style="stroke:#038048;stroke-width:1.0;"/><text fill="#000000" font-family="sans-serif" font-size="14" lengthAdjust="spacing" text-decoration="underline" textLength="88" x="1017" y="302.4795">Add Device()</text><ellipse cx="1008" cy="315.4297" fill="#84BE84" rx="3" ry="3" style="stroke:#038048;stroke-width:1.0;"/><text fill="#000000" font-family="sans-serif" font-size="14" lengthAdjust="spacing" text-decoration="underline" textLength="118" x="1017" y="318.7764">Remove Device()</text><ellipse cx="1008" cy="331.7266" fill="#84BE84" rx="3" ry="3" style="stroke:#038048;stroke-width:1.0;"/><text fill="#000000" font-family="sans-serif" font-size="14" lengthAdjust="spacing" text-decoration="underline" textLength="51" x="1017" y="335.0732">Reset()</text><ellipse cx="1008" cy="348.0234" fill="#84BE84" rx="3" ry="3" style="stroke:#038048;stroke-width:1.0;"/><text fill="#000000" font-family="sans-serif" font-size="14" lengthAdjust="spacing" text-decoration="underline" textLength="80" x="1017" y="351.3701">Save Keys()</text><rect fill="#F24D5C" height="6" style="stroke:#C82930;stroke-width:1.0;" width="6" x="1005" y="361.3203"/><text fill="#000000" font-family="sans-serif" font-size="14" lengthAdjust="spacing" text-decoration="underline" textLength="139" x="1017" y="367.667">Load Configuration()</text><rect fill="#F24D5C" height="6" style="stroke:#C82930;stroke-width:1.0;" width="6" x="1005" y="377.6172"/><text fill="#000000" font-family="sans-serif" font-size="14" lengthAdjust="spacing" text-decoration="underline" textLength="147" x="1017" y="383.9639">Load Required Keys()</text><rect fill="#F24D5C" height="6" style="stroke:#C82930;stroke-width:1.0;" width="6" x="1005" y="393.9141"/><text fill="#000000" font-family="sans-serif" font-size="14" lengthAdjust="spacing" text-decoration="underline" textLength="81" x="1017" y="400.2607">Refresh UI()</text><polygon fill="#FFFF44" points="1008,408.2109,1012,412.2109,1008,416.2109,1004,412.2109" style="stroke:#B38D22;stroke-width:1.0;"/><text fill="#000000" font-family="sans-serif" font-size="14" lengthAdjust="spacing" textLength="83" x="1017" y="416.5576">Actor Core()</text></g><!--class Message--><g id="elem_Message"><rect fill="#FFFFFF" height="48" id="Message" rx="2.5" ry="2.5" style="stroke:#555555;stroke-width:0.5;" width="95" x="499.5" y="41"/><rect fill="#808080" height="32" rx="2.5" ry="2.5" style="stroke:#808080;stroke-width:0.5;" width="95" x="499.5" y="41"/><rect fill="#808080" height="2.5" style="stroke:#808080;stroke-width:0.5;" width="95" x="499.5" y="70.5"/><rect fill="none" height="48" id="Message" rx="2.5" ry="2.5" style="stroke:#555555;stroke-width:0.5;" width="95" x="499.5" y="41"/><ellipse cx="514.5" cy="57" fill="#ADD1B2" rx="11" ry="11" style="stroke:#181818;stroke-width:1.0;"/><path d="M517.4688,62.6406 Q516.8906,62.9375 516.25,63.0781 Q515.6094,63.2344 514.9063,63.2344 Q512.4063,63.2344 511.0781,61.5938 Q509.7656,59.9375 509.7656,56.8125 Q509.7656,53.6875 511.0781,52.0313 Q512.4063,50.375 514.9063,50.375 Q515.6094,50.375 516.25,50.5313 Q516.9063,50.6875 517.4688,50.9844 L517.4688,53.7031 Q516.8438,53.125 516.25,52.8594 Q515.6563,52.5781 515.0313,52.5781 Q513.6875,52.5781 513,53.6563 Q512.3125,54.7188 512.3125,56.8125 Q512.3125,58.9063 513,59.9844 Q513.6875,61.0469 515.0313,61.0469 Q515.6563,61.0469 516.25,60.7813 Q516.8438,60.5 517.4688,59.9219 L517.4688,62.6406 Z " fill="#000000"/><text fill="#000000" font-family="sans-serif" font-size="14" lengthAdjust="spacing" textLength="63" x="528.5" y="61.8467">Message</text><line style="stroke:#555555;stroke-width:0.5;" x1="500.5" x2="593.5" y1="73" y2="73"/><line style="stroke:#555555;stroke-width:0.5;" x1="500.5" x2="593.5" y1="81" y2="81"/></g><!--class Prime Panel--><g id="elem_Prime Panel"><rect fill="#FFFFFF" height="48" id="Prime Panel" rx="2.5" ry="2.5" style="stroke:#555555;stroke-width:0.5;" width="113" x="1071.5" y="41"/><rect fill="#808080" height="32" rx="2.5" ry="2.5" style="stroke:#808080;stroke-width:0.5;" width="113" x="1071.5" y="41"/><rect fill="#808080" height="2.5" style="stroke:#808080;stroke-width:0.5;" width="113" x="1071.5" y="70.5"/><rect fill="none" height="48" id="Prime Panel" rx="2.5" ry="2.5" style="stroke:#555555;stroke-width:0.5;" width="113" x="1071.5" y="41"/><ellipse cx="1086.5" cy="57" fill="#ADD1B2" rx="11" ry="11" style="stroke:#181818;stroke-width:1.0;"/><path d="M1089.4688,62.6406 Q1088.8906,62.9375 1088.25,63.0781 Q1087.6094,63.2344 1086.9063,63.2344 Q1084.4063,63.2344 1083.0781,61.5938 Q1081.7656,59.9375 1081.7656,56.8125 Q1081.7656,53.6875 1083.0781,52.0313 Q1084.4063,50.375 1086.9063,50.375 Q1087.6094,50.375 1088.25,50.5313 Q1088.9063,50.6875 1089.4688,50.9844 L1089.4688,53.7031 Q1088.8438,53.125 1088.25,52.8594 Q1087.6563,52.5781 1087.0313,52.5781 Q1085.6875,52.5781 1085,53.6563 Q1084.3125,54.7188 1084.3125,56.8125 Q1084.3125,58.9063 1085,59.9844 Q1085.6875,61.0469 1087.0313,61.0469 Q1087.6563,61.0469 1088.25,60.7813 Q1088.8438,60.5 1089.4688,59.9219 L1089.4688,62.6406 Z " fill="#000000"/><text fill="#000000" font-family="sans-serif" font-size="14" lengthAdjust="spacing" textLength="81" x="1100.5" y="61.8467">Prime Panel</text><line style="stroke:#555555;stroke-width:0.5;" x1="1072.5" x2="1183.5" y1="73" y2="73"/><line style="stroke:#555555;stroke-width:0.5;" x1="1072.5" x2="1183.5" y1="81" y2="81"/></g><!--class Config--><g id="elem_Config"><rect fill="#FFFFFF" height="48" id="Config" rx="2.5" ry="2.5" style="stroke:#555555;stroke-width:0.5;" width="76" x="1090" y="498.86"/><rect fill="#808080" height="32" rx="2.5" ry="2.5" style="stroke:#808080;stroke-width:0.5;" width="76" x="1090" y="498.86"/><rect fill="#808080" height="2.5" style="stroke:#808080;stroke-width:0.5;" width="76" x="1090" y="528.36"/><rect fill="none" height="48" id="Config" rx="2.5" ry="2.5" style="stroke:#555555;stroke-width:0.5;" width="76" x="1090" y="498.86"/><ellipse cx="1105" cy="514.86" fill="#ADD1B2" rx="11" ry="11" style="stroke:#181818;stroke-width:1.0;"/><path d="M1107.9688,520.5006 Q1107.3906,520.7975 1106.75,520.9381 Q1106.1094,521.0944 1105.4063,521.0944 Q1102.9063,521.0944 1101.5781,519.4538 Q1100.2656,517.7975 1100.2656,514.6725 Q1100.2656,511.5475 1101.5781,509.8913 Q1102.9063,508.235 1105.4063,508.235 Q1106.1094,508.235 1106.75,508.3913 Q1107.4063,508.5475 1107.9688,508.8444 L1107.9688,511.5631 Q1107.3438,510.985 1106.75,510.7194 Q1106.1563,510.4381 1105.5313,510.4381 Q1104.1875,510.4381 1103.5,511.5163 Q1102.8125,512.5788 1102.8125,514.6725 Q1102.8125,516.7663 1103.5,517.8444 Q1104.1875,518.9069 1105.5313,518.9069 Q1106.1563,518.9069 1106.75,518.6413 Q1107.3438,518.36 1107.9688,517.7819 L1107.9688,520.5006 Z " fill="#000000"/><text fill="#000000" font-family="sans-serif" font-size="14" lengthAdjust="spacing" textLength="44" x="1119" y="519.7067">Config</text><line style="stroke:#555555;stroke-width:0.5;" x1="1091" x2="1165" y1="530.86" y2="530.86"/><line style="stroke:#555555;stroke-width:0.5;" x1="1091" x2="1165" y1="538.86" y2="538.86"/></g><!--reverse link Message to Reset Msg--><g id="link_Message_Reset Msg"><path codeLine="13" d="M612.7451,71.8259 C683.0351,78.6759 791.78,92.86 827,121 C868.17,153.91 887.64,213.72 896.41,253.39 " fill="none" id="Message-backto-Reset Msg" style="stroke:#181818;stroke-width:1.0;"/><polygon fill="none" points="594.83,70.08,612.1632,77.7976,613.3271,65.8542,594.83,70.08" style="stroke:#181818;stroke-width:1.0;"/></g><!--reverse link Message to Add Device Msg--><g id="link_Message_Add Device Msg"><path codeLine="21" d="M610.4344,97.5896 C625.4744,106.2596 625.74,108.2 638,121 C675.06,159.7 702.1,215.86 717.42,253.34 " fill="none" id="Message-backto-Add Device Msg" style="stroke:#181818;stroke-width:1.0;"/><polygon fill="none" points="594.84,88.6,607.4379,102.7878,613.431,92.3915,594.84,88.6" style="stroke:#181818;stroke-width:1.0;"/></g><!--reverse link Message to Save Keys Msg--><g id="link_Message_Save Keys Msg"><path codeLine="29" d="M547,107.43 C547,146.16 547,205.95 547,253.33 " fill="none" id="Message-backto-Save Keys Msg" style="stroke:#181818;stroke-width:1.0;"/><polygon fill="none" points="547,89.43,541,107.43,553,107.43,547,89.43" style="stroke:#181818;stroke-width:1.0;"/></g><!--reverse link Message to Select Instrument Msg--><g id="link_Message_Select Instrument Msg"><path codeLine="38" d="M484.2811,98.331 C469.2911,107.051 468.84,108.79 456,121 C417.91,157.23 385.54,208.06 364.75,245.05 " fill="none" id="Message-backto-Select Instrument Msg" style="stroke:#181818;stroke-width:1.0;"/><polygon fill="none" points="499.84,89.28,481.2641,93.1446,487.2981,103.5173,499.84,89.28" style="stroke:#181818;stroke-width:1.0;"/></g><!--reverse link Message to Remove Device Msg--><g id="link_Message_Remove Device Msg"><path codeLine="46" d="M481.2889,70.8644 C402.7089,77.2344 268.4,91.59 224,121 C176.15,152.71 144.81,213.13 128.25,253.24 " fill="none" id="Message-backto-Remove Device Msg" style="stroke:#181818;stroke-width:1.0;"/><polygon fill="none" points="499.23,69.41,480.8041,64.884,481.7736,76.8448,499.23,69.41" style="stroke:#181818;stroke-width:1.0;"/></g><!--reverse link Prime Panel to Configuration UI--><g id="link_Prime Panel_Configuration UI"><path codeLine="65" d="M1128,107.43 C1128,125.83 1128,135.05 1128,163.64 " fill="none" id="Prime Panel-backto-Configuration UI" style="stroke:#181818;stroke-width:1.0;"/><polygon fill="none" points="1128,89.43,1122,107.43,1134,107.43,1128,89.43" style="stroke:#181818;stroke-width:1.0;"/></g><!--reverse link Configuration UI to Config--><g id="link_Configuration UI_Config"><path codeLine="66" d="M1128,436.3 C1128,464.97 1128,480.25 1128,498.64 " fill="none" id="Configuration UI-backto-Config" style="stroke:#181818;stroke-width:1.0;"/><polygon fill="#181818" points="1128,424.3,1124,430.3,1128,436.3,1132,430.3,1128,424.3" style="stroke:#181818;stroke-width:1.0;"/></g><!--SRC=[jPJVRzem4CVV_LUSwCkwYgfQDMb2UsbJeQA1Me7MTnCVgKVYOxP3Ep7-zrr-j0b9rl224Gy-VtB-tlbhE_HWP89k8qDSu4PQwSd2IBYrDjaiWI2MpjtAS1rPIeqAA6RWR9oF5aPMeIsHh_be8cColWIkyj44xb5oZjQ6twwodwZHdZRyXoLvJmaeRJ7qcem8iomm2CYiT9HoGHo4dvFBU1lhvMYEZckUkMW0Ex5pdfV3FUmIzC-azd2nGACWXpwTYofyHpmLUp6u2RC6ZLa0lf1T5ratenaw9oCSmFU_m-4HcmlHe_D6ARZ3hGwnJsn5da1nGqQlx8NS8lp0FwvFzJju0j678lerOypMWObntgO9cieUAuqnoneM12eOmUJwo_zhQYOwHMsTOdjhd6D2t9JZ77K0d-GQDCNqwc-6wyTpKMl6L3k_f5S-gFNqwM7vAvlVqcl5vhQOuygaoJiq2yhFAcoX8oFZ8y1261FJf-BzwkvgXp7QsE5DRg-tpgKBAL-k3X7r6zTQ7av9AZXeymVS77-d_E2g3_9nwoowPpwhkeFE2kC4PB5qqgFL2SAZD1Y_kQWMwd5IonRYU0DzhlA-RLpCCZV-0m00]--></g></svg>