<?xml version="1.0" encoding="us-ascii" standalone="no"?><svg xmlns="http://www.w3.org/2000/svg" xmlns:xlink="http://www.w3.org/1999/xlink" contentStyleType="text/css" height="569px" preserveAspectRatio="none" style="width:307px;height:569px;background:#FFFFFF;" version="1.1" viewBox="0 0 307 569" width="307px" zoomAndPan="magnify"><defs/><g><!--cluster Configuration UI.lvlib--><g id="cluster_Configuration UI.lvlib"><path d="M8.5,129 L172.5,129 A3.75,3.75 0 0 1 175,131.5 L182,151.2969 L297.5,151.2969 A2.5,2.5 0 0 1 300,153.7969 L300,437.36 A2.5,2.5 0 0 1 297.5,439.86 L8.5,439.86 A2.5,2.5 0 0 1 6,437.36 L6,131.5 A2.5,2.5 0 0 1 8.5,129 " fill="none" style="stroke:#000000;stroke-width:1.5;"/><line style="stroke:#000000;stroke-width:1.5;" x1="6" x2="182" y1="151.2969" y2="151.2969"/><text fill="#000000" font-family="sans-serif" font-size="14" font-weight="bold" lengthAdjust="spacing" textLength="163" x="10" y="143.9951">Configuration UI.lvlib</text></g><!--cluster Prime Panel.lvlibp--><g id="cluster_Prime Panel.lvlibp"><path d="M78.5,6 L218.5,6 A3.75,3.75 0 0 1 221,8.5 L228,28.2969 L228.5,28.2969 A2.5,2.5 0 0 1 231,30.7969 L231,102.5 A2.5,2.5 0 0 1 228.5,105 L78.5,105 A2.5,2.5 0 0 1 76,102.5 L76,8.5 A2.5,2.5 0 0 1 78.5,6 " fill="none" style="stroke:#000000;stroke-width:1.5;"/><line style="stroke:#000000;stroke-width:1.5;" x1="76" x2="228" y1="28.2969" y2="28.2969"/><text fill="#000000" font-family="sans-serif" font-size="14" font-weight="bold" lengthAdjust="spacing" textLength="139" x="80" y="20.9951">Prime Panel.lvlibp</text></g><!--cluster Config.lvlibp--><g id="cluster_Config.lvlibp"><path d="M99.5,463.86 L197.5,463.86 A3.75,3.75 0 0 1 200,466.36 L207,486.1569 L207.5,486.1569 A2.5,2.5 0 0 1 210,488.6569 L210,560.36 A2.5,2.5 0 0 1 207.5,562.86 L99.5,562.86 A2.5,2.5 0 0 1 97,560.36 L97,466.36 A2.5,2.5 0 0 1 99.5,463.86 " fill="none" style="stroke:#000000;stroke-width:1.5;"/><line style="stroke:#000000;stroke-width:1.5;" x1="97" x2="207" y1="486.1569" y2="486.1569"/><text fill="#000000" font-family="sans-serif" font-size="14" font-weight="bold" lengthAdjust="spacing" textLength="97" x="101" y="478.8551">Config.lvlibp</text></g><!--class Configuration UI--><g id="elem_Configuration UI"><rect codeLine="8" fill="#FFFFFF" height="259.8594" id="Configuration UI" rx="2.5" ry="2.5" style="stroke:#555555;stroke-width:0.5;" width="262" x="22" y="164"/><rect fill="#808080" height="32" rx="2.5" ry="2.5" style="stroke:#808080;stroke-width:0.5;" width="262" x="22" y="164"/><rect fill="#808080" height="2.5" style="stroke:#808080;stroke-width:0.5;" width="262" x="22" y="193.5"/><rect codeLine="8" fill="none" height="259.8594" id="Configuration UI" rx="2.5" ry="2.5" style="stroke:#555555;stroke-width:0.5;" width="262" x="22" y="164"/><ellipse cx="94.25" cy="180" fill="#ADD1B2" rx="11" ry="11" style="stroke:#181818;stroke-width:1.0;"/><path d="M97.2188,185.6406 Q96.6406,185.9375 96,186.0781 Q95.3594,186.2344 94.6563,186.2344 Q92.1563,186.2344 90.8281,184.5938 Q89.5156,182.9375 89.5156,179.8125 Q89.5156,176.6875 90.8281,175.0313 Q92.1563,173.375 94.6563,173.375 Q95.3594,173.375 96,173.5313 Q96.6563,173.6875 97.2188,173.9844 L97.2188,176.7031 Q96.5938,176.125 96,175.8594 Q95.4063,175.5781 94.7813,175.5781 Q93.4375,175.5781 92.75,176.6563 Q92.0625,177.7188 92.0625,179.8125 Q92.0625,181.9063 92.75,182.9844 Q93.4375,184.0469 94.7813,184.0469 Q95.4063,184.0469 96,183.7813 Q96.5938,183.5 97.2188,182.9219 L97.2188,185.6406 Z " fill="#000000"/><text fill="#000000" font-family="sans-serif" font-size="14" lengthAdjust="spacing" textLength="109" x="114.75" y="184.8467">Configuration UI</text><line style="stroke:#555555;stroke-width:0.5;" x1="23" x2="283" y1="196" y2="196"/><ellipse cx="33" cy="209.6484" fill="none" rx="3" ry="3" style="stroke:#038048;stroke-width:1.0;"/><text fill="#000000" font-family="sans-serif" font-size="14" lengthAdjust="spacing" textLength="236" x="42" y="212.9951">Instrument Listbox : kLVObjListBox</text><ellipse cx="33" cy="225.9453" fill="none" rx="3" ry="3" style="stroke:#038048;stroke-width:1.0;"/><text fill="#000000" font-family="sans-serif" font-size="14" lengthAdjust="spacing" textLength="221" x="42" y="229.292">Keys Refnum : kLVObjMCListbox</text><ellipse cx="33" cy="242.2422" fill="none" rx="3" ry="3" style="stroke:#038048;stroke-width:1.0;"/><text fill="#000000" font-family="sans-serif" font-size="14" lengthAdjust="spacing" textLength="229" x="42" y="245.5889">Signal Refnum : kLVObjMCListbox</text><ellipse cx="33" cy="258.5391" fill="none" rx="3" ry="3" style="stroke:#038048;stroke-width:1.0;"/><text fill="#000000" font-family="sans-serif" font-size="14" lengthAdjust="spacing" textLength="114" x="42" y="261.8857">Config : LV Class</text><line style="stroke:#555555;stroke-width:0.5;" x1="23" x2="283" y1="269.1875" y2="269.1875"/><ellipse cx="33" cy="282.8359" fill="#84BE84" rx="3" ry="3" style="stroke:#038048;stroke-width:1.0;"/><text fill="#000000" font-family="sans-serif" font-size="14" lengthAdjust="spacing" text-decoration="underline" textLength="132" x="42" y="286.1826">Select Instrument()</text><ellipse cx="33" cy="299.1328" fill="#84BE84" rx="3" ry="3" style="stroke:#038048;stroke-width:1.0;"/><text fill="#000000" font-family="sans-serif" font-size="14" lengthAdjust="spacing" text-decoration="underline" textLength="88" x="42" y="302.4795">Add Device()</text><ellipse cx="33" cy="315.4297" fill="#84BE84" rx="3" ry="3" style="stroke:#038048;stroke-width:1.0;"/><text fill="#000000" font-family="sans-serif" font-size="14" lengthAdjust="spacing" text-decoration="underline" textLength="118" x="42" y="318.7764">Remove Device()</text><ellipse cx="33" cy="331.7266" fill="#84BE84" rx="3" ry="3" style="stroke:#038048;stroke-width:1.0;"/><text fill="#000000" font-family="sans-serif" font-size="14" lengthAdjust="spacing" text-decoration="underline" textLength="51" x="42" y="335.0732">Reset()</text><ellipse cx="33" cy="348.0234" fill="#84BE84" rx="3" ry="3" style="stroke:#038048;stroke-width:1.0;"/><text fill="#000000" font-family="sans-serif" font-size="14" lengthAdjust="spacing" text-decoration="underline" textLength="80" x="42" y="351.3701">Save Keys()</text><rect fill="#F24D5C" height="6" style="stroke:#C82930;stroke-width:1.0;" width="6" x="30" y="361.3203"/><text fill="#000000" font-family="sans-serif" font-size="14" lengthAdjust="spacing" text-decoration="underline" textLength="139" x="42" y="367.667">Load Configuration()</text><rect fill="#F24D5C" height="6" style="stroke:#C82930;stroke-width:1.0;" width="6" x="30" y="377.6172"/><text fill="#000000" font-family="sans-serif" font-size="14" lengthAdjust="spacing" text-decoration="underline" textLength="147" x="42" y="383.9639">Load Required Keys()</text><rect fill="#F24D5C" height="6" style="stroke:#C82930;stroke-width:1.0;" width="6" x="30" y="393.9141"/><text fill="#000000" font-family="sans-serif" font-size="14" lengthAdjust="spacing" text-decoration="underline" textLength="81" x="42" y="400.2607">Refresh UI()</text><polygon fill="#FFFF44" points="33,408.2109,37,412.2109,33,416.2109,29,412.2109" style="stroke:#B38D22;stroke-width:1.0;"/><text fill="#000000" font-family="sans-serif" font-size="14" lengthAdjust="spacing" textLength="83" x="42" y="416.5576">Actor Core()</text></g><!--class Prime Panel--><g id="elem_Prime Panel"><rect fill="#FFFFFF" height="48" id="Prime Panel" rx="2.5" ry="2.5" style="stroke:#555555;stroke-width:0.5;" width="113" x="96.5" y="41"/><rect fill="#808080" height="32" rx="2.5" ry="2.5" style="stroke:#808080;stroke-width:0.5;" width="113" x="96.5" y="41"/><rect fill="#808080" height="2.5" style="stroke:#808080;stroke-width:0.5;" width="113" x="96.5" y="70.5"/><rect fill="none" height="48" id="Prime Panel" rx="2.5" ry="2.5" style="stroke:#555555;stroke-width:0.5;" width="113" x="96.5" y="41"/><ellipse cx="111.5" cy="57" fill="#ADD1B2" rx="11" ry="11" style="stroke:#181818;stroke-width:1.0;"/><path d="M114.4688,62.6406 Q113.8906,62.9375 113.25,63.0781 Q112.6094,63.2344 111.9063,63.2344 Q109.4063,63.2344 108.0781,61.5938 Q106.7656,59.9375 106.7656,56.8125 Q106.7656,53.6875 108.0781,52.0313 Q109.4063,50.375 111.9063,50.375 Q112.6094,50.375 113.25,50.5313 Q113.9063,50.6875 114.4688,50.9844 L114.4688,53.7031 Q113.8438,53.125 113.25,52.8594 Q112.6563,52.5781 112.0313,52.5781 Q110.6875,52.5781 110,53.6563 Q109.3125,54.7188 109.3125,56.8125 Q109.3125,58.9063 110,59.9844 Q110.6875,61.0469 112.0313,61.0469 Q112.6563,61.0469 113.25,60.7813 Q113.8438,60.5 114.4688,59.9219 L114.4688,62.6406 Z " fill="#000000"/><text fill="#000000" font-family="sans-serif" font-size="14" lengthAdjust="spacing" textLength="81" x="125.5" y="61.8467">Prime Panel</text><line style="stroke:#555555;stroke-width:0.5;" x1="97.5" x2="208.5" y1="73" y2="73"/><line style="stroke:#555555;stroke-width:0.5;" x1="97.5" x2="208.5" y1="81" y2="81"/></g><!--class Config--><g id="elem_Config"><rect fill="#FFFFFF" height="48" id="Config" rx="2.5" ry="2.5" style="stroke:#555555;stroke-width:0.5;" width="76" x="115" y="498.86"/><rect fill="#808080" height="32" rx="2.5" ry="2.5" style="stroke:#808080;stroke-width:0.5;" width="76" x="115" y="498.86"/><rect fill="#808080" height="2.5" style="stroke:#808080;stroke-width:0.5;" width="76" x="115" y="528.36"/><rect fill="none" height="48" id="Config" rx="2.5" ry="2.5" style="stroke:#555555;stroke-width:0.5;" width="76" x="115" y="498.86"/><ellipse cx="130" cy="514.86" fill="#ADD1B2" rx="11" ry="11" style="stroke:#181818;stroke-width:1.0;"/><path d="M132.9688,520.5006 Q132.3906,520.7975 131.75,520.9381 Q131.1094,521.0944 130.4063,521.0944 Q127.9063,521.0944 126.5781,519.4538 Q125.2656,517.7975 125.2656,514.6725 Q125.2656,511.5475 126.5781,509.8913 Q127.9063,508.235 130.4063,508.235 Q131.1094,508.235 131.75,508.3913 Q132.4063,508.5475 132.9688,508.8444 L132.9688,511.5631 Q132.3438,510.985 131.75,510.7194 Q131.1563,510.4381 130.5313,510.4381 Q129.1875,510.4381 128.5,511.5163 Q127.8125,512.5788 127.8125,514.6725 Q127.8125,516.7663 128.5,517.8444 Q129.1875,518.9069 130.5313,518.9069 Q131.1563,518.9069 131.75,518.6413 Q132.3438,518.36 132.9688,517.7819 L132.9688,520.5006 Z " fill="#000000"/><text fill="#000000" font-family="sans-serif" font-size="14" lengthAdjust="spacing" textLength="44" x="144" y="519.7067">Config</text><line style="stroke:#555555;stroke-width:0.5;" x1="116" x2="190" y1="530.86" y2="530.86"/><line style="stroke:#555555;stroke-width:0.5;" x1="116" x2="190" y1="538.86" y2="538.86"/></g><!--reverse link Prime Panel to Configuration UI--><g id="link_Prime Panel_Configuration UI"><path codeLine="24" d="M153,107.43 C153,125.83 153,135.05 153,163.64 " fill="none" id="Prime Panel-backto-Configuration UI" style="stroke:#181818;stroke-width:1.0;"/><polygon fill="none" points="153,89.43,147,107.43,159,107.43,153,89.43" style="stroke:#181818;stroke-width:1.0;"/></g><!--reverse link Configuration UI to Config--><g id="link_Configuration UI_Config"><path codeLine="25" d="M153,436.3 C153,464.97 153,480.25 153,498.64 " fill="none" id="Configuration UI-backto-Config" style="stroke:#181818;stroke-width:1.0;"/><polygon fill="#181818" points="153,424.3,149,430.3,153,436.3,157,430.3,153,424.3" style="stroke:#181818;stroke-width:1.0;"/></g><!--SRC=[ZP9DRy8m38Rl-HLMkUn3J5mcJTKkq0aDhTCGQBkdZO6CV7H9YfWO_tr92oi3nd3LW-qdR-pO5XqeAj4MDCSn5jHGfmt4nCwv2fw4H51hUpIVJuqk5Kkqy42hNza1fWr3iq5kAzj7-bgv3T2fR1zuHEer3YwywuIFxD1E5_w7J3kd9J1kC7TSAv875OWIhIPyMlg6V11U1pTY8NWMxuSZM97LXADWQxWUAEjCAL4vIBbrcLv23FFqxILx3tvFBnls2JyjZ72YIla3FIUROmqsvbD5nHbWNPWdqhVw8SZAEbzbleQLH3VJbHeAtoKqTLvS7iEwZC43BdYEn_CZb7g1_o0M_r0VKtysj7yqtKurPV3hcKzm8_me_UJO2Jt_T0RjpCygvBVXLZSFcvfe4neWQn8D3PS8GwfGrBCkufrG1FTVxVRvQq7ENw2hHdTxSUr5X91l]--></g></svg>