<?xml version="1.0" encoding="us-ascii" standalone="no"?><svg xmlns="http://www.w3.org/2000/svg" xmlns:xlink="http://www.w3.org/1999/xlink" contentStyleType="text/css" height="912px" preserveAspectRatio="none" style="width:380px;height:912px;background:#FFFFFF;" version="1.1" viewBox="0 0 380 912" width="380px" zoomAndPan="magnify"><defs/><g><!--cluster Engine.lvlib--><g id="cluster_Engine.lvlib"><path d="M25.5,129 L115.5,129 A3.75,3.75 0 0 1 118,131.5 L125,151.2969 L370.5,151.2969 A2.5,2.5 0 0 1 373,153.7969 L373,779.59 A2.5,2.5 0 0 1 370.5,782.09 L25.5,782.09 A2.5,2.5 0 0 1 23,779.59 L23,131.5 A2.5,2.5 0 0 1 25.5,129 " fill="none" style="stroke:#000000;stroke-width:1.5;"/><line style="stroke:#000000;stroke-width:1.5;" x1="23" x2="125" y1="151.2969" y2="151.2969"/><text fill="#000000" font-family="sans-serif" font-size="14" font-weight="bold" lengthAdjust="spacing" textLength="89" x="27" y="143.9951">Engine.lvlib</text></g><!--cluster State Actor.lvlibp--><g id="cluster_State Actor.lvlibp"><path d="M125.5,6 L261.5,6 A3.75,3.75 0 0 1 264,8.5 L271,28.2969 L271.5,28.2969 A2.5,2.5 0 0 1 274,30.7969 L274,102.5 A2.5,2.5 0 0 1 271.5,105 L125.5,105 A2.5,2.5 0 0 1 123,102.5 L123,8.5 A2.5,2.5 0 0 1 125.5,6 " fill="none" style="stroke:#000000;stroke-width:1.5;"/><line style="stroke:#000000;stroke-width:1.5;" x1="123" x2="271" y1="28.2969" y2="28.2969"/><text fill="#000000" font-family="sans-serif" font-size="14" font-weight="bold" lengthAdjust="spacing" textLength="135" x="127" y="20.9951">State Actor.lvlibp</text></g><!--cluster Actor Framework.lvlibp--><g id="cluster_Actor Framework.lvlibp"><path d="M8.5,806.09 L192.5,806.09 A3.75,3.75 0 0 1 195,808.59 L202,828.3869 L202.5,828.3869 A2.5,2.5 0 0 1 205,830.8869 L205,902.59 A2.5,2.5 0 0 1 202.5,905.09 L8.5,905.09 A2.5,2.5 0 0 1 6,902.59 L6,808.59 A2.5,2.5 0 0 1 8.5,806.09 " fill="none" style="stroke:#000000;stroke-width:1.5;"/><line style="stroke:#000000;stroke-width:1.5;" x1="6" x2="202" y1="828.3869" y2="828.3869"/><text fill="#000000" font-family="sans-serif" font-size="14" font-weight="bold" lengthAdjust="spacing" textLength="183" x="10" y="821.0851">Actor Framework.lvlibp</text></g><!--cluster QDMH.lvlibp--><g id="cluster_QDMH.lvlibp"><path d="M231.5,806.09 L325.5,806.09 A3.75,3.75 0 0 1 328,808.59 L335,828.3869 L335.5,828.3869 A2.5,2.5 0 0 1 338,830.8869 L338,902.59 A2.5,2.5 0 0 1 335.5,905.09 L231.5,905.09 A2.5,2.5 0 0 1 229,902.59 L229,808.59 A2.5,2.5 0 0 1 231.5,806.09 " fill="none" style="stroke:#000000;stroke-width:1.5;"/><line style="stroke:#000000;stroke-width:1.5;" x1="229" x2="335" y1="828.3869" y2="828.3869"/><text fill="#000000" font-family="sans-serif" font-size="14" font-weight="bold" lengthAdjust="spacing" textLength="93" x="233" y="821.0851">QDMH.lvlibp</text></g><!--class Engine--><g id="elem_Engine"><rect codeLine="8" fill="#FFFFFF" height="602.0938" id="Engine" rx="2.5" ry="2.5" style="stroke:#555555;stroke-width:0.5;" width="318" x="39" y="164"/><rect fill="#808080" height="32" rx="2.5" ry="2.5" style="stroke:#808080;stroke-width:0.5;" width="318" x="39" y="164"/><rect fill="#808080" height="2.5" style="stroke:#808080;stroke-width:0.5;" width="318" x="39" y="193.5"/><rect codeLine="8" fill="none" height="602.0938" id="Engine" rx="2.5" ry="2.5" style="stroke:#555555;stroke-width:0.5;" width="318" x="39" y="164"/><ellipse cx="169.75" cy="180" fill="#ADD1B2" rx="11" ry="11" style="stroke:#181818;stroke-width:1.0;"/><path d="M172.7188,185.6406 Q172.1406,185.9375 171.5,186.0781 Q170.8594,186.2344 170.1563,186.2344 Q167.6563,186.2344 166.3281,184.5938 Q165.0156,182.9375 165.0156,179.8125 Q165.0156,176.6875 166.3281,175.0313 Q167.6563,173.375 170.1563,173.375 Q170.8594,173.375 171.5,173.5313 Q172.1563,173.6875 172.7188,173.9844 L172.7188,176.7031 Q172.0938,176.125 171.5,175.8594 Q170.9063,175.5781 170.2813,175.5781 Q168.9375,175.5781 168.25,176.6563 Q167.5625,177.7188 167.5625,179.8125 Q167.5625,181.9063 168.25,182.9844 Q168.9375,184.0469 170.2813,184.0469 Q170.9063,184.0469 171.5,183.7813 Q172.0938,183.5 172.7188,182.9219 L172.7188,185.6406 Z " fill="#000000"/><text fill="#000000" font-family="sans-serif" font-size="14" lengthAdjust="spacing" textLength="48" x="190.25" y="184.8467">Engine</text><line style="stroke:#555555;stroke-width:0.5;" x1="40" x2="356" y1="196" y2="196"/><ellipse cx="50" cy="209.6484" fill="none" rx="3" ry="3" style="stroke:#038048;stroke-width:1.0;"/><text fill="#000000" font-family="sans-serif" font-size="14" lengthAdjust="spacing" textLength="114" x="59" y="212.9951">isRoot : Boolean</text><ellipse cx="50" cy="225.9453" fill="none" rx="3" ry="3" style="stroke:#038048;stroke-width:1.0;"/><text fill="#000000" font-family="sans-serif" font-size="14" lengthAdjust="spacing" textLength="110" x="59" y="229.292">Self Q : LV Class</text><ellipse cx="50" cy="242.2422" fill="none" rx="3" ry="3" style="stroke:#038048;stroke-width:1.0;"/><text fill="#000000" font-family="sans-serif" font-size="14" lengthAdjust="spacing" textLength="123" x="59" y="245.5889">Caller Q : LV Class</text><rect fill="none" height="6" style="stroke:#C82930;stroke-width:1.0;" width="6" x="47" y="255.5391"/><text fill="#000000" font-family="sans-serif" font-size="14" lengthAdjust="spacing" textLength="185" x="59" y="261.8857">Application Directory : Path</text><ellipse cx="50" cy="274.8359" fill="none" rx="3" ry="3" style="stroke:#038048;stroke-width:1.0;"/><text fill="#000000" font-family="sans-serif" font-size="14" lengthAdjust="spacing" textLength="114" x="59" y="278.1826">VI_Ref : kLVObjVI</text><ellipse cx="50" cy="291.1328" fill="none" rx="3" ry="3" style="stroke:#038048;stroke-width:1.0;"/><text fill="#000000" font-family="sans-serif" font-size="14" lengthAdjust="spacing" textLength="109" x="59" y="294.4795">Events : Cluster</text><ellipse cx="50" cy="307.4297" fill="none" rx="3" ry="3" style="stroke:#038048;stroke-width:1.0;"/><text fill="#000000" font-family="sans-serif" font-size="14" lengthAdjust="spacing" textLength="168" x="59" y="310.7764">Report Queue : LV Class</text><ellipse cx="50" cy="323.7266" fill="none" rx="3" ry="3" style="stroke:#038048;stroke-width:1.0;"/><text fill="#000000" font-family="sans-serif" font-size="14" lengthAdjust="spacing" textLength="147" x="59" y="327.0732">Pedigree : Enum U16</text><line style="stroke:#555555;stroke-width:0.5;" x1="40" x2="356" y1="334.375" y2="334.375"/><ellipse cx="50" cy="348.0234" fill="#84BE84" rx="3" ry="3" style="stroke:#038048;stroke-width:1.0;"/><text fill="#000000" font-family="sans-serif" font-size="14" lengthAdjust="spacing" text-decoration="underline" textLength="292" x="59" y="351.3701">Send Asynch Telemetry Descriptor Event()</text><ellipse cx="50" cy="364.3203" fill="#84BE84" rx="3" ry="3" style="stroke:#038048;stroke-width:1.0;"/><text fill="#000000" font-family="sans-serif" font-size="14" lengthAdjust="spacing" text-decoration="underline" textLength="228" x="59" y="367.667">Send Interface Command Event()</text><ellipse cx="50" cy="380.6172" fill="#84BE84" rx="3" ry="3" style="stroke:#038048;stroke-width:1.0;"/><text fill="#000000" font-family="sans-serif" font-size="14" lengthAdjust="spacing" text-decoration="underline" textLength="238" x="59" y="383.9639">Send Telemetry Descriptor Event()</text><ellipse cx="50" cy="396.9141" fill="#84BE84" rx="3" ry="3" style="stroke:#038048;stroke-width:1.0;"/><text fill="#000000" font-family="sans-serif" font-size="14" lengthAdjust="spacing" text-decoration="underline" textLength="143" x="59" y="400.2607">Send Launch Event()</text><ellipse cx="50" cy="413.2109" fill="#84BE84" rx="3" ry="3" style="stroke:#038048;stroke-width:1.0;"/><text fill="#000000" font-family="sans-serif" font-size="14" lengthAdjust="spacing" text-decoration="underline" textLength="164" x="59" y="416.5576">Send QuickStart Event()</text><ellipse cx="50" cy="429.5078" fill="#84BE84" rx="3" ry="3" style="stroke:#038048;stroke-width:1.0;"/><text fill="#000000" font-family="sans-serif" font-size="14" lengthAdjust="spacing" text-decoration="underline" textLength="151" x="59" y="432.8545">Send SafeBTE Event()</text><ellipse cx="50" cy="445.8047" fill="#84BE84" rx="3" ry="3" style="stroke:#038048;stroke-width:1.0;"/><text fill="#000000" font-family="sans-serif" font-size="14" lengthAdjust="spacing" text-decoration="underline" textLength="187" x="59" y="449.1514">Send ToggleSupply Event()</text><ellipse cx="50" cy="462.1016" fill="#84BE84" rx="3" ry="3" style="stroke:#038048;stroke-width:1.0;"/><text fill="#000000" font-family="sans-serif" font-size="14" lengthAdjust="spacing" text-decoration="underline" textLength="168" x="59" y="465.4482">Send UUTSupply Event()</text><ellipse cx="50" cy="478.3984" fill="#84BE84" rx="3" ry="3" style="stroke:#038048;stroke-width:1.0;"/><text fill="#000000" font-family="sans-serif" font-size="14" lengthAdjust="spacing" text-decoration="underline" textLength="190" x="59" y="481.7451">Toggle Instrument Display()</text><ellipse cx="50" cy="494.6953" fill="#84BE84" rx="3" ry="3" style="stroke:#038048;stroke-width:1.0;"/><text fill="#000000" font-family="sans-serif" font-size="14" lengthAdjust="spacing" text-decoration="underline" textLength="121" x="59" y="498.042">Check for Errors()</text><ellipse cx="50" cy="510.9922" fill="#84BE84" rx="3" ry="3" style="stroke:#038048;stroke-width:1.0;"/><text fill="#000000" font-family="sans-serif" font-size="14" lengthAdjust="spacing" text-decoration="underline" textLength="172" x="59" y="514.3389">Send Automation Event()</text><ellipse cx="50" cy="527.2891" fill="#84BE84" rx="3" ry="3" style="stroke:#038048;stroke-width:1.0;"/><text fill="#000000" font-family="sans-serif" font-size="14" lengthAdjust="spacing" text-decoration="underline" textLength="188" x="59" y="530.6357">Send SystemStatus Event()</text><ellipse cx="50" cy="543.5859" fill="#84BE84" rx="3" ry="3" style="stroke:#038048;stroke-width:1.0;"/><text fill="#000000" font-family="sans-serif" font-size="14" lengthAdjust="spacing" text-decoration="underline" textLength="158" x="59" y="546.9326">Send Operator_Name()</text><ellipse cx="50" cy="559.8828" fill="#84BE84" rx="3" ry="3" style="stroke:#038048;stroke-width:1.0;"/><text fill="#000000" font-family="sans-serif" font-size="14" lengthAdjust="spacing" text-decoration="underline" textLength="112" x="59" y="563.2295">Send Pedigree()</text><ellipse cx="50" cy="576.1797" fill="#84BE84" rx="3" ry="3" style="stroke:#038048;stroke-width:1.0;"/><text fill="#000000" font-family="sans-serif" font-size="14" lengthAdjust="spacing" text-decoration="underline" textLength="128" x="59" y="579.5264">Send Test_Name()</text><ellipse cx="50" cy="592.4766" fill="#84BE84" rx="3" ry="3" style="stroke:#038048;stroke-width:1.0;"/><text fill="#000000" font-family="sans-serif" font-size="14" lengthAdjust="spacing" text-decoration="underline" textLength="126" x="59" y="595.8232">Send UUT_Name()</text><ellipse cx="50" cy="608.7734" fill="#84BE84" rx="3" ry="3" style="stroke:#038048;stroke-width:1.0;"/><text fill="#000000" font-family="sans-serif" font-size="14" lengthAdjust="spacing" text-decoration="underline" textLength="152" x="59" y="612.1201">Send Witness_Name()</text><rect fill="#F24D5C" height="6" style="stroke:#C82930;stroke-width:1.0;" width="6" x="47" y="622.0703"/><text fill="#000000" font-family="sans-serif" font-size="14" lengthAdjust="spacing" text-decoration="underline" textLength="183" x="59" y="628.417">Create Event References()</text><rect fill="#F24D5C" height="6" style="stroke:#C82930;stroke-width:1.0;" width="6" x="47" y="638.3672"/><text fill="#000000" font-family="sans-serif" font-size="14" lengthAdjust="spacing" text-decoration="underline" textLength="141" x="59" y="644.7139">Create New Report()</text><rect fill="#F24D5C" height="6" style="stroke:#C82930;stroke-width:1.0;" width="6" x="47" y="654.6641"/><text fill="#000000" font-family="sans-serif" font-size="14" lengthAdjust="spacing" text-decoration="underline" textLength="51" x="59" y="661.0107">Setup()</text><ellipse cx="50" cy="673.9609" fill="#84BE84" rx="3" ry="3" style="stroke:#038048;stroke-width:1.0;"/><text fill="#000000" font-family="sans-serif" font-size="14" lengthAdjust="spacing" textLength="153" x="59" y="677.3076">Reset Manual Layout()</text><ellipse cx="50" cy="690.2578" fill="#84BE84" rx="3" ry="3" style="stroke:#038048;stroke-width:1.0;"/><text fill="#000000" font-family="sans-serif" font-size="14" lengthAdjust="spacing" textLength="105" x="59" y="693.6045">Adjust Splitter()</text><ellipse cx="50" cy="706.5547" fill="#84BE84" rx="3" ry="3" style="stroke:#038048;stroke-width:1.0;"/><text fill="#000000" font-family="sans-serif" font-size="14" lengthAdjust="spacing" textLength="85" x="59" y="709.9014">Build Class()</text><ellipse cx="50" cy="722.8516" fill="#84BE84" rx="3" ry="3" style="stroke:#038048;stroke-width:1.0;"/><text fill="#000000" font-family="sans-serif" font-size="14" lengthAdjust="spacing" textLength="197" x="59" y="726.1982">Toggle Component Display()</text><polygon fill="#FFFF44" points="50,734.1484,54,738.1484,50,742.1484,46,738.1484" style="stroke:#B38D22;stroke-width:1.0;"/><text fill="#000000" font-family="sans-serif" font-size="14" lengthAdjust="spacing" textLength="111" x="59" y="742.4951">Pre Launch Init()</text><polygon fill="#FFFF44" points="50,750.4453,54,754.4453,50,758.4453,46,754.4453" style="stroke:#B38D22;stroke-width:1.0;"/><text fill="#000000" font-family="sans-serif" font-size="14" lengthAdjust="spacing" textLength="121" x="59" y="758.792">Substitute Actor()</text></g><!--class State Actor--><g id="elem_State Actor"><rect fill="#FFFFFF" height="48" id="State Actor" rx="2.5" ry="2.5" style="stroke:#555555;stroke-width:0.5;" width="108" x="144" y="41"/><rect fill="#808080" height="32" rx="2.5" ry="2.5" style="stroke:#808080;stroke-width:0.5;" width="108" x="144" y="41"/><rect fill="#808080" height="2.5" style="stroke:#808080;stroke-width:0.5;" width="108" x="144" y="70.5"/><rect fill="none" height="48" id="State Actor" rx="2.5" ry="2.5" style="stroke:#555555;stroke-width:0.5;" width="108" x="144" y="41"/><ellipse cx="159" cy="57" fill="#ADD1B2" rx="11" ry="11" style="stroke:#181818;stroke-width:1.0;"/><path d="M161.9688,62.6406 Q161.3906,62.9375 160.75,63.0781 Q160.1094,63.2344 159.4063,63.2344 Q156.9063,63.2344 155.5781,61.5938 Q154.2656,59.9375 154.2656,56.8125 Q154.2656,53.6875 155.5781,52.0313 Q156.9063,50.375 159.4063,50.375 Q160.1094,50.375 160.75,50.5313 Q161.4063,50.6875 161.9688,50.9844 L161.9688,53.7031 Q161.3438,53.125 160.75,52.8594 Q160.1563,52.5781 159.5313,52.5781 Q158.1875,52.5781 157.5,53.6563 Q156.8125,54.7188 156.8125,56.8125 Q156.8125,58.9063 157.5,59.9844 Q158.1875,61.0469 159.5313,61.0469 Q160.1563,61.0469 160.75,60.7813 Q161.3438,60.5 161.9688,59.9219 L161.9688,62.6406 Z " fill="#000000"/><text fill="#000000" font-family="sans-serif" font-size="14" lengthAdjust="spacing" textLength="76" x="173" y="61.8467">State Actor</text><line style="stroke:#555555;stroke-width:0.5;" x1="145" x2="251" y1="73" y2="73"/><line style="stroke:#555555;stroke-width:0.5;" x1="145" x2="251" y1="81" y2="81"/></g><!--class Message Enqueuer--><g id="elem_Message Enqueuer"><rect fill="#FFFFFF" height="48" id="Message Enqueuer" rx="2.5" ry="2.5" style="stroke:#555555;stroke-width:0.5;" width="167" x="22.5" y="841.09"/><rect fill="#808080" height="32" rx="2.5" ry="2.5" style="stroke:#808080;stroke-width:0.5;" width="167" x="22.5" y="841.09"/><rect fill="#808080" height="2.5" style="stroke:#808080;stroke-width:0.5;" width="167" x="22.5" y="870.59"/><rect fill="none" height="48" id="Message Enqueuer" rx="2.5" ry="2.5" style="stroke:#555555;stroke-width:0.5;" width="167" x="22.5" y="841.09"/><ellipse cx="37.5" cy="857.09" fill="#ADD1B2" rx="11" ry="11" style="stroke:#181818;stroke-width:1.0;"/><path d="M40.4688,862.7306 Q39.8906,863.0275 39.25,863.1681 Q38.6094,863.3244 37.9063,863.3244 Q35.4063,863.3244 34.0781,861.6838 Q32.7656,860.0275 32.7656,856.9025 Q32.7656,853.7775 34.0781,852.1213 Q35.4063,850.465 37.9063,850.465 Q38.6094,850.465 39.25,850.6213 Q39.9063,850.7775 40.4688,851.0744 L40.4688,853.7931 Q39.8438,853.215 39.25,852.9494 Q38.6563,852.6681 38.0313,852.6681 Q36.6875,852.6681 36,853.7463 Q35.3125,854.8088 35.3125,856.9025 Q35.3125,858.9963 36,860.0744 Q36.6875,861.1369 38.0313,861.1369 Q38.6563,861.1369 39.25,860.8713 Q39.8438,860.59 40.4688,860.0119 L40.4688,862.7306 Z " fill="#000000"/><text fill="#000000" font-family="sans-serif" font-size="14" lengthAdjust="spacing" textLength="135" x="51.5" y="861.9367">Message Enqueuer</text><line style="stroke:#555555;stroke-width:0.5;" x1="23.5" x2="188.5" y1="873.09" y2="873.09"/><line style="stroke:#555555;stroke-width:0.5;" x1="23.5" x2="188.5" y1="881.09" y2="881.09"/></g><!--class QDMH--><g id="elem_QDMH"><rect fill="#FFFFFF" height="48" id="QDMH" rx="2.5" ry="2.5" style="stroke:#555555;stroke-width:0.5;" width="76" x="245" y="841.09"/><rect fill="#808080" height="32" rx="2.5" ry="2.5" style="stroke:#808080;stroke-width:0.5;" width="76" x="245" y="841.09"/><rect fill="#808080" height="2.5" style="stroke:#808080;stroke-width:0.5;" width="76" x="245" y="870.59"/><rect fill="none" height="48" id="QDMH" rx="2.5" ry="2.5" style="stroke:#555555;stroke-width:0.5;" width="76" x="245" y="841.09"/><ellipse cx="260" cy="857.09" fill="#ADD1B2" rx="11" ry="11" style="stroke:#181818;stroke-width:1.0;"/><path d="M262.9688,862.7306 Q262.3906,863.0275 261.75,863.1681 Q261.1094,863.3244 260.4063,863.3244 Q257.9063,863.3244 256.5781,861.6838 Q255.2656,860.0275 255.2656,856.9025 Q255.2656,853.7775 256.5781,852.1213 Q257.9063,850.465 260.4063,850.465 Q261.1094,850.465 261.75,850.6213 Q262.4063,850.7775 262.9688,851.0744 L262.9688,853.7931 Q262.3438,853.215 261.75,852.9494 Q261.1563,852.6681 260.5313,852.6681 Q259.1875,852.6681 258.5,853.7463 Q257.8125,854.8088 257.8125,856.9025 Q257.8125,858.9963 258.5,860.0744 Q259.1875,861.1369 260.5313,861.1369 Q261.1563,861.1369 261.75,860.8713 Q262.3438,860.59 262.9688,860.0119 L262.9688,862.7306 Z " fill="#000000"/><text fill="#000000" font-family="sans-serif" font-size="14" lengthAdjust="spacing" textLength="44" x="274" y="861.9367">QDMH</text><line style="stroke:#555555;stroke-width:0.5;" x1="246" x2="320" y1="873.09" y2="873.09"/><line style="stroke:#555555;stroke-width:0.5;" x1="246" x2="320" y1="881.09" y2="881.09"/></g><!--reverse link State Actor to Engine--><g id="link_State Actor_Engine"><path codeLine="45" d="M198,107.41 C198,124.99 198,133.23 198,163.82 " fill="none" id="State Actor-backto-Engine" style="stroke:#181818;stroke-width:1.0;"/><polygon fill="none" points="198,89.41,192,107.41,204,107.41,198,89.41" style="stroke:#181818;stroke-width:1.0;"/></g><!--reverse link Engine to Message Enqueuer--><g id="link_Engine_Message Enqueuer"><path codeLine="46" d="M125.8611,778.1526 C118.8211,808.6526 115.47,823.12 111.41,840.66 " fill="none" id="Engine-backto-Message Enqueuer" style="stroke:#181818;stroke-width:1.0;"/><polygon fill="#181818" points="128.56,766.46,123.313,771.4067,125.8611,778.1526,131.1081,773.2059,128.56,766.46" style="stroke:#181818;stroke-width:1.0;"/></g><!--reverse link Engine to QDMH--><g id="link_Engine_QDMH"><path codeLine="47" d="M264.6549,778.1957 C271.1649,808.6957 274.25,823.12 278,840.66 " fill="none" id="Engine-backto-QDMH" style="stroke:#181818;stroke-width:1.0;"/><polygon fill="#181818" points="262.15,766.46,259.4906,773.1628,264.6549,778.1957,267.3143,771.4929,262.15,766.46" style="stroke:#181818;stroke-width:1.0;"/></g><!--SRC=[dPJVRzem4CVVyrTOyB8VOkeUDareBn10HOAs462FbKakmSMnC_lS2Z7-zvqJ68LI8irHfCJVZy_dyzrPGAPu3hRWCKHGSCDH6zOEx5ee_vUpK79hkpnUPqOxbOHQ4j0SbECDfaq2PezyAySvCj0Azy1DESw1M-1auys6Fsxy4xoYKHVqigL6r3bBX84OXLP1xAsmHbzbGi4N-Ip5ibtzDDWssAO2PB9ZduMTQesipRfQI-3gg4GWKpOXPRIeN3fA8PSIp6MnrIaAAMBkdM2zqXrjDaG-S5mTJIo6ZrD8QNezMjmldnR3ezH_1eMMf50wYs2EoXGARP1D73YuwDW3928puCM-SZcRV_qUR2sIC_6ERNF0bQwEfXBMiHiLhzWC9910BlR0naOK_kPB5pvyV7VjK95VAIKB2tMUSvgfM_5VsuouyoxMOHCdudM4d49JXqOyXUwiN- -kpZ89aQExtDJ2y_cidgmiKkGi6fSJHibX2yatb_5m1V6QfJv8ncXZhspVSPJvLRxL7dz32PLJgD3PMlY-WB8FFDvHQxZ27PBkwkrRh3D3KQn3VWbKOEtxM2iqm16gep4gC32WOh1NuJjuOLLbNSOYG5TuwPypKx3KCSTSEIufIJVQuOdUIPweSbb4ZG2fK4wqhXCogUhsP7wV7rHFXLPdwN60cWy63aKnLE9aqsRabXO5EZfHn_SS4eDTqF2NlP-fkc3HVZNLO3__j5gNssHmkNb-ydovc0se0SEBDkk3vJ7T3iye_kgtxr7cger9RtnxMEY_6q4G_0K0]--></g></svg>