<?xml version="1.0" encoding="us-ascii" standalone="no"?><svg xmlns="http://www.w3.org/2000/svg" xmlns:xlink="http://www.w3.org/1999/xlink" contentStyleType="text/css" height="1419px" preserveAspectRatio="none" style="width:371px;height:1419px;background:#FFFFFF;" version="1.1" viewBox="0 0 371 1419" width="371px" zoomAndPan="magnify"><defs/><g><!--cluster Base Software.lvlib--><g id="cluster_Base Software.lvlib"><path d="M8.5,129 L160.5,129 A3.75,3.75 0 0 1 163,131.5 L170,151.2969 L331.5,151.2969 A2.5,2.5 0 0 1 334,153.7969 L334,1286.61 A2.5,2.5 0 0 1 331.5,1289.11 L8.5,1289.11 A2.5,2.5 0 0 1 6,1286.61 L6,131.5 A2.5,2.5 0 0 1 8.5,129 " fill="none" style="stroke:#000000;stroke-width:1.5;"/><line style="stroke:#000000;stroke-width:1.5;" x1="6" x2="170" y1="151.2969" y2="151.2969"/><text fill="#000000" font-family="sans-serif" font-size="14" font-weight="bold" lengthAdjust="spacing" textLength="151" x="10" y="143.9951">Base Software.lvlib</text></g><!--cluster Main.lvlib--><g id="cluster_Main.lvlib"><path d="M32.5,172 L105.5,172 A3.75,3.75 0 0 1 108,174.5 L115,194.2969 L307.5,194.2969 A2.5,2.5 0 0 1 310,196.7969 L310,1262.61 A2.5,2.5 0 0 1 307.5,1265.11 L32.5,1265.11 A2.5,2.5 0 0 1 30,1262.61 L30,174.5 A2.5,2.5 0 0 1 32.5,172 " fill="none" style="stroke:#000000;stroke-width:1.5;"/><line style="stroke:#000000;stroke-width:1.5;" x1="30" x2="115" y1="194.2969" y2="194.2969"/><text fill="#000000" font-family="sans-serif" font-size="14" font-weight="bold" lengthAdjust="spacing" textLength="72" x="34" y="186.9951">Main.lvlib</text></g><!--cluster Engine.lvlibp--><g id="cluster_Engine.lvlibp"><path d="M115.5,6 L215.5,6 A3.75,3.75 0 0 1 218,8.5 L225,28.2969 L225.5,28.2969 A2.5,2.5 0 0 1 228,30.7969 L228,102.5 A2.5,2.5 0 0 1 225.5,105 L115.5,105 A2.5,2.5 0 0 1 113,102.5 L113,8.5 A2.5,2.5 0 0 1 115.5,6 " fill="none" style="stroke:#000000;stroke-width:1.5;"/><line style="stroke:#000000;stroke-width:1.5;" x1="113" x2="225" y1="28.2969" y2="28.2969"/><text fill="#000000" font-family="sans-serif" font-size="14" font-weight="bold" lengthAdjust="spacing" textLength="99" x="117" y="20.9951">Engine.lvlibp</text></g><!--cluster Config.lvlibp--><g id="cluster_Config.lvlibp"><path d="M30.5,1313.11 L128.5,1313.11 A3.75,3.75 0 0 1 131,1315.61 L138,1335.4069 L138.5,1335.4069 A2.5,2.5 0 0 1 141,1337.9069 L141,1409.61 A2.5,2.5 0 0 1 138.5,1412.11 L30.5,1412.11 A2.5,2.5 0 0 1 28,1409.61 L28,1315.61 A2.5,2.5 0 0 1 30.5,1313.11 " fill="none" style="stroke:#000000;stroke-width:1.5;"/><line style="stroke:#000000;stroke-width:1.5;" x1="28" x2="138" y1="1335.4069" y2="1335.4069"/><text fill="#000000" font-family="sans-serif" font-size="14" font-weight="bold" lengthAdjust="spacing" textLength="97" x="32" y="1328.1051">Config.lvlibp</text></g><!--cluster Actor Framework.lvlibp--><g id="cluster_Actor Framework.lvlibp"><path d="M167.5,1313.11 L351.5,1313.11 A3.75,3.75 0 0 1 354,1315.61 L361,1335.4069 L361.5,1335.4069 A2.5,2.5 0 0 1 364,1337.9069 L364,1409.61 A2.5,2.5 0 0 1 361.5,1412.11 L167.5,1412.11 A2.5,2.5 0 0 1 165,1409.61 L165,1315.61 A2.5,2.5 0 0 1 167.5,1313.11 " fill="none" style="stroke:#000000;stroke-width:1.5;"/><line style="stroke:#000000;stroke-width:1.5;" x1="165" x2="361" y1="1335.4069" y2="1335.4069"/><text fill="#000000" font-family="sans-serif" font-size="14" font-weight="bold" lengthAdjust="spacing" textLength="183" x="169" y="1328.1051">Actor Framework.lvlibp</text></g><!--class Base Software--><g id="elem_Base Software"><rect codeLine="8" fill="#FFFFFF" height="1042.1094" id="Base Software" rx="2.5" ry="2.5" style="stroke:#555555;stroke-width:0.5;" width="248" x="46" y="207"/><rect fill="#808080" height="32" rx="2.5" ry="2.5" style="stroke:#808080;stroke-width:0.5;" width="248" x="46" y="207"/><rect fill="#808080" height="2.5" style="stroke:#808080;stroke-width:0.5;" width="248" x="46" y="236.5"/><rect codeLine="8" fill="none" height="1042.1094" id="Base Software" rx="2.5" ry="2.5" style="stroke:#555555;stroke-width:0.5;" width="248" x="46" y="207"/><ellipse cx="116.25" cy="223" fill="#ADD1B2" rx="11" ry="11" style="stroke:#181818;stroke-width:1.0;"/><path d="M119.2188,228.6406 Q118.6406,228.9375 118,229.0781 Q117.3594,229.2344 116.6563,229.2344 Q114.1563,229.2344 112.8281,227.5938 Q111.5156,225.9375 111.5156,222.8125 Q111.5156,219.6875 112.8281,218.0313 Q114.1563,216.375 116.6563,216.375 Q117.3594,216.375 118,216.5313 Q118.6563,216.6875 119.2188,216.9844 L119.2188,219.7031 Q118.5938,219.125 118,218.8594 Q117.4063,218.5781 116.7813,218.5781 Q115.4375,218.5781 114.75,219.6563 Q114.0625,220.7188 114.0625,222.8125 Q114.0625,224.9063 114.75,225.9844 Q115.4375,227.0469 116.7813,227.0469 Q117.4063,227.0469 118,226.7813 Q118.5938,226.5 119.2188,225.9219 L119.2188,228.6406 Z " fill="#000000"/><text fill="#000000" font-family="sans-serif" font-size="14" lengthAdjust="spacing" textLength="99" x="136.75" y="227.8467">Base Software</text><line style="stroke:#555555;stroke-width:0.5;" x1="47" x2="293" y1="239" y2="239"/><rect fill="none" height="6" style="stroke:#C82930;stroke-width:1.0;" width="6" x="54" y="249.6484"/><text fill="#000000" font-family="sans-serif" font-size="14" lengthAdjust="spacing" textLength="209" x="66" y="255.9951">Subordinates : Array of Cluster</text><ellipse cx="57" cy="268.9453" fill="none" rx="3" ry="3" style="stroke:#038048;stroke-width:1.0;"/><text fill="#000000" font-family="sans-serif" font-size="14" lengthAdjust="spacing" textLength="173" x="66" y="272.292">Splitters : Array of Cluster</text><rect fill="none" height="6" style="stroke:#C82930;stroke-width:1.0;" width="6" x="54" y="282.2422"/><text fill="#000000" font-family="sans-serif" font-size="14" lengthAdjust="spacing" textLength="187" x="66" y="288.5889">System_Status : Enum U16</text><rect fill="none" height="6" style="stroke:#C82930;stroke-width:1.0;" width="6" x="54" y="298.5391"/><text fill="#000000" font-family="sans-serif" font-size="14" lengthAdjust="spacing" textLength="170" x="66" y="304.8857">Pedigree : Array of String</text><rect fill="none" height="6" style="stroke:#C82930;stroke-width:1.0;" width="6" x="54" y="314.8359"/><text fill="#000000" font-family="sans-serif" font-size="14" lengthAdjust="spacing" textLength="158" x="66" y="321.1826">Models : Array of String</text><rect fill="none" height="6" style="stroke:#C82930;stroke-width:1.0;" width="6" x="54" y="331.1328"/><text fill="#000000" font-family="sans-serif" font-size="14" lengthAdjust="spacing" textLength="162" x="66" y="337.4795">Configuration : LV Class</text><rect fill="none" height="6" style="stroke:#C82930;stroke-width:1.0;" width="6" x="54" y="347.4297"/><text fill="#000000" font-family="sans-serif" font-size="14" lengthAdjust="spacing" textLength="149" x="66" y="353.7764">Automation : Boolean</text><rect fill="none" height="6" style="stroke:#C82930;stroke-width:1.0;" width="6" x="54" y="363.7266"/><text fill="#000000" font-family="sans-serif" font-size="14" lengthAdjust="spacing" textLength="119" x="66" y="370.0732">Manual : Boolean</text><ellipse cx="57" cy="383.0234" fill="none" rx="3" ry="3" style="stroke:#038048;stroke-width:1.0;"/><text fill="#000000" font-family="sans-serif" font-size="14" lengthAdjust="spacing" textLength="149" x="66" y="386.3701">Logged_On : Boolean</text><ellipse cx="57" cy="399.3203" fill="none" rx="3" ry="3" style="stroke:#038048;stroke-width:1.0;"/><text fill="#000000" font-family="sans-serif" font-size="14" lengthAdjust="spacing" textLength="131" x="66" y="402.667">UUT_Info : Boolean</text><rect fill="none" height="6" style="stroke:#C82930;stroke-width:1.0;" width="6" x="54" y="412.6172"/><text fill="#000000" font-family="sans-serif" font-size="14" lengthAdjust="spacing" textLength="103" x="66" y="418.9639">Error : Boolean</text><rect fill="none" height="6" style="stroke:#C82930;stroke-width:1.0;" width="6" x="54" y="428.9141"/><text fill="#000000" font-family="sans-serif" font-size="14" lengthAdjust="spacing" textLength="126" x="66" y="435.2607">Warning : Boolean</text><ellipse cx="57" cy="448.2109" fill="none" rx="3" ry="3" style="stroke:#038048;stroke-width:1.0;"/><text fill="#000000" font-family="sans-serif" font-size="14" lengthAdjust="spacing" textLength="184" x="66" y="451.5576">Previous State : Enum U16</text><ellipse cx="57" cy="464.5078" fill="none" rx="3" ry="3" style="stroke:#038048;stroke-width:1.0;"/><text fill="#000000" font-family="sans-serif" font-size="14" lengthAdjust="spacing" textLength="121" x="66" y="467.8545">State : Enum U16</text><rect fill="none" height="6" style="stroke:#C82930;stroke-width:1.0;" width="6" x="54" y="477.8047"/><text fill="#000000" font-family="sans-serif" font-size="14" lengthAdjust="spacing" textLength="142" x="66" y="484.1514">References : Cluster</text><line style="stroke:#555555;stroke-width:0.5;" x1="47" x2="293" y1="491.4531" y2="491.4531"/><ellipse cx="57" cy="505.1016" fill="#84BE84" rx="3" ry="3" style="stroke:#038048;stroke-width:1.0;"/><text fill="#000000" font-family="sans-serif" font-size="14" lengthAdjust="spacing" text-decoration="underline" textLength="47" x="66" y="508.4482">Login()</text><ellipse cx="57" cy="521.3984" fill="#84BE84" rx="3" ry="3" style="stroke:#038048;stroke-width:1.0;"/><text fill="#000000" font-family="sans-serif" font-size="14" lengthAdjust="spacing" text-decoration="underline" textLength="59" x="66" y="524.7451">Manual()</text><ellipse cx="57" cy="537.6953" fill="#84BE84" rx="3" ry="3" style="stroke:#038048;stroke-width:1.0;"/><text fill="#000000" font-family="sans-serif" font-size="14" lengthAdjust="spacing" text-decoration="underline" textLength="222" x="66" y="541.042">Automation Update Test Name()</text><ellipse cx="57" cy="553.9922" fill="#84BE84" rx="3" ry="3" style="stroke:#038048;stroke-width:1.0;"/><text fill="#000000" font-family="sans-serif" font-size="14" lengthAdjust="spacing" text-decoration="underline" textLength="138" x="66" y="557.3389">Query Instruments()</text><ellipse cx="57" cy="570.2891" fill="#84BE84" rx="3" ry="3" style="stroke:#038048;stroke-width:1.0;"/><text fill="#000000" font-family="sans-serif" font-size="14" lengthAdjust="spacing" text-decoration="underline" textLength="135" x="66" y="573.6357">Query UUT Details()</text><ellipse cx="57" cy="586.5859" fill="#84BE84" rx="3" ry="3" style="stroke:#038048;stroke-width:1.0;"/><text fill="#000000" font-family="sans-serif" font-size="14" lengthAdjust="spacing" text-decoration="underline" textLength="219" x="66" y="589.9326">Update Automation Reference()</text><ellipse cx="57" cy="602.8828" fill="#84BE84" rx="3" ry="3" style="stroke:#038048;stroke-width:1.0;"/><text fill="#000000" font-family="sans-serif" font-size="14" lengthAdjust="spacing" text-decoration="underline" textLength="96" x="66" y="606.2295">Launch Main()</text><ellipse cx="57" cy="619.1797" fill="#84BE84" rx="3" ry="3" style="stroke:#038048;stroke-width:1.0;"/><text fill="#000000" font-family="sans-serif" font-size="14" lengthAdjust="spacing" text-decoration="underline" textLength="209" x="66" y="622.5264">Launch Subordinate and Add()</text><ellipse cx="57" cy="635.4766" fill="#84BE84" rx="3" ry="3" style="stroke:#038048;stroke-width:1.0;"/><text fill="#000000" font-family="sans-serif" font-size="14" lengthAdjust="spacing" text-decoration="underline" textLength="188" x="66" y="638.8232">Process Test Name Event()</text><ellipse cx="57" cy="651.7734" fill="#84BE84" rx="3" ry="3" style="stroke:#038048;stroke-width:1.0;"/><text fill="#000000" font-family="sans-serif" font-size="14" lengthAdjust="spacing" text-decoration="underline" textLength="177" x="66" y="655.1201">Respond to Menu Event()</text><ellipse cx="57" cy="668.0703" fill="#84BE84" rx="3" ry="3" style="stroke:#038048;stroke-width:1.0;"/><text fill="#000000" font-family="sans-serif" font-size="14" lengthAdjust="spacing" text-decoration="underline" textLength="151" x="66" y="671.417">Show Splash Screen()</text><ellipse cx="57" cy="684.3672" fill="#84BE84" rx="3" ry="3" style="stroke:#038048;stroke-width:1.0;"/><text fill="#000000" font-family="sans-serif" font-size="14" lengthAdjust="spacing" text-decoration="underline" textLength="163" x="66" y="687.7139">Update System Status()</text><rect fill="#F24D5C" height="6" style="stroke:#C82930;stroke-width:1.0;" width="6" x="54" y="697.6641"/><text fill="#000000" font-family="sans-serif" font-size="14" lengthAdjust="spacing" text-decoration="underline" textLength="139" x="66" y="704.0107">Update Test Name()</text><rect fill="#F24D5C" height="6" style="stroke:#C82930;stroke-width:1.0;" width="6" x="54" y="713.9609"/><text fill="#000000" font-family="sans-serif" font-size="14" lengthAdjust="spacing" text-decoration="underline" textLength="59" x="66" y="720.3076">Log On()</text><rect fill="#F24D5C" height="6" style="stroke:#C82930;stroke-width:1.0;" width="6" x="54" y="730.2578"/><text fill="#000000" font-family="sans-serif" font-size="14" lengthAdjust="spacing" text-decoration="underline" textLength="147" x="66" y="736.6045">Update Model Serial()</text><rect fill="#F24D5C" height="6" style="stroke:#C82930;stroke-width:1.0;" width="6" x="54" y="746.5547"/><text fill="#000000" font-family="sans-serif" font-size="14" lengthAdjust="spacing" text-decoration="underline" textLength="156" x="66" y="752.9014">Launch Chronometer()</text><rect fill="#F24D5C" height="6" style="stroke:#C82930;stroke-width:1.0;" width="6" x="54" y="762.8516"/><text fill="#000000" font-family="sans-serif" font-size="14" lengthAdjust="spacing" text-decoration="underline" textLength="173" x="66" y="769.1982">Launch Configuration UI()</text><rect fill="#F24D5C" height="6" style="stroke:#C82930;stroke-width:1.0;" width="6" x="54" y="779.1484"/><text fill="#000000" font-family="sans-serif" font-size="14" lengthAdjust="spacing" text-decoration="underline" textLength="134" x="66" y="785.4951">Launch Debugger()</text><rect fill="#F24D5C" height="6" style="stroke:#C82930;stroke-width:1.0;" width="6" x="54" y="795.4453"/><text fill="#000000" font-family="sans-serif" font-size="14" lengthAdjust="spacing" text-decoration="underline" textLength="153" x="66" y="801.792">Launch Fault Monitor()</text><rect fill="#F24D5C" height="6" style="stroke:#C82930;stroke-width:1.0;" width="6" x="54" y="811.7422"/><text fill="#000000" font-family="sans-serif" font-size="14" lengthAdjust="spacing" text-decoration="underline" textLength="172" x="66" y="818.0889">Launch Manual Buttons()</text><rect fill="#F24D5C" height="6" style="stroke:#C82930;stroke-width:1.0;" width="6" x="54" y="828.0391"/><text fill="#000000" font-family="sans-serif" font-size="14" lengthAdjust="spacing" text-decoration="underline" textLength="130" x="66" y="834.3857">Launch Manual UI()</text><rect fill="#F24D5C" height="6" style="stroke:#C82930;stroke-width:1.0;" width="6" x="54" y="844.3359"/><text fill="#000000" font-family="sans-serif" font-size="14" lengthAdjust="spacing" text-decoration="underline" textLength="185" x="66" y="850.6826">Launch Report Generator()</text><rect fill="#F24D5C" height="6" style="stroke:#C82930;stroke-width:1.0;" width="6" x="54" y="860.6328"/><text fill="#000000" font-family="sans-serif" font-size="14" lengthAdjust="spacing" text-decoration="underline" textLength="178" x="66" y="866.9795">Launch Report Viewer UI()</text><rect fill="#F24D5C" height="6" style="stroke:#C82930;stroke-width:1.0;" width="6" x="54" y="876.9297"/><text fill="#000000" font-family="sans-serif" font-size="14" lengthAdjust="spacing" text-decoration="underline" textLength="107" x="66" y="883.2764">Create Events()</text><rect fill="#F24D5C" height="6" style="stroke:#C82930;stroke-width:1.0;" width="6" x="54" y="893.2266"/><text fill="#000000" font-family="sans-serif" font-size="14" lengthAdjust="spacing" text-decoration="underline" textLength="158" x="66" y="899.5732">Create Report Queue()</text><rect fill="#F24D5C" height="6" style="stroke:#C82930;stroke-width:1.0;" width="6" x="54" y="909.5234"/><text fill="#000000" font-family="sans-serif" font-size="14" lengthAdjust="spacing" text-decoration="underline" textLength="156" x="66" y="915.8701">Launch Subordinates()</text><rect fill="#F24D5C" height="6" style="stroke:#C82930;stroke-width:1.0;" width="6" x="54" y="925.8203"/><text fill="#000000" font-family="sans-serif" font-size="14" lengthAdjust="spacing" text-decoration="underline" textLength="138" x="66" y="932.167">Reset Instruments()</text><rect fill="#F24D5C" height="6" style="stroke:#C82930;stroke-width:1.0;" width="6" x="54" y="942.1172"/><text fill="#000000" font-family="sans-serif" font-size="14" lengthAdjust="spacing" text-decoration="underline" textLength="125" x="66" y="948.4639">Add Subordinate()</text><rect fill="#F24D5C" height="6" style="stroke:#C82930;stroke-width:1.0;" width="6" x="54" y="958.4141"/><text fill="#000000" font-family="sans-serif" font-size="14" lengthAdjust="spacing" text-decoration="underline" textLength="148" x="66" y="964.7607">Launch Subordinate()</text><rect fill="#F24D5C" height="6" style="stroke:#C82930;stroke-width:1.0;" width="6" x="54" y="974.7109"/><text fill="#000000" font-family="sans-serif" font-size="14" lengthAdjust="spacing" text-decoration="underline" textLength="168" x="66" y="981.0576">Search for Subordinate()</text><rect fill="#F24D5C" height="6" style="stroke:#C82930;stroke-width:1.0;" width="6" x="54" y="991.0078"/><text fill="#000000" font-family="sans-serif" font-size="14" lengthAdjust="spacing" text-decoration="underline" textLength="146" x="66" y="997.3545">Pull GUI References()</text><rect fill="#F24D5C" height="6" style="stroke:#C82930;stroke-width:1.0;" width="6" x="54" y="1007.3047"/><text fill="#000000" font-family="sans-serif" font-size="14" lengthAdjust="spacing" text-decoration="underline" textLength="74" x="66" y="1013.6514">Idle Logic()</text><rect fill="#F24D5C" height="6" style="stroke:#C82930;stroke-width:1.0;" width="6" x="54" y="1023.6016"/><text fill="#000000" font-family="sans-serif" font-size="14" lengthAdjust="spacing" text-decoration="underline" textLength="119" x="66" y="1029.9482">Manual Enabled()</text><rect fill="#F24D5C" height="6" style="stroke:#C82930;stroke-width:1.0;" width="6" x="54" y="1039.8984"/><text fill="#000000" font-family="sans-serif" font-size="14" lengthAdjust="spacing" text-decoration="underline" textLength="126" x="66" y="1046.2451">Refresh Controls()</text><rect fill="#F24D5C" height="6" style="stroke:#C82930;stroke-width:1.0;" width="6" x="54" y="1056.1953"/><text fill="#000000" font-family="sans-serif" font-size="14" lengthAdjust="spacing" text-decoration="underline" textLength="104" x="66" y="1062.542">Refresh State()</text><rect fill="#F24D5C" height="6" style="stroke:#C82930;stroke-width:1.0;" width="6" x="54" y="1072.4922"/><text fill="#000000" font-family="sans-serif" font-size="14" lengthAdjust="spacing" text-decoration="underline" textLength="112" x="66" y="1078.8389">Indicator_Color()</text><rect fill="#F24D5C" height="6" style="stroke:#C82930;stroke-width:1.0;" width="6" x="54" y="1088.7891"/><text fill="#000000" font-family="sans-serif" font-size="14" lengthAdjust="spacing" text-decoration="underline" textLength="110" x="66" y="1095.1357">Set UUT Name()</text><rect fill="#F24D5C" height="6" style="stroke:#C82930;stroke-width:1.0;" width="6" x="54" y="1105.0859"/><text fill="#000000" font-family="sans-serif" font-size="14" lengthAdjust="spacing" text-decoration="underline" textLength="157" x="66" y="1111.4326">Show Mission Screen()</text><rect fill="#F24D5C" height="6" style="stroke:#C82930;stroke-width:1.0;" width="6" x="54" y="1121.3828"/><text fill="#000000" font-family="sans-serif" font-size="14" lengthAdjust="spacing" text-decoration="underline" textLength="64" x="66" y="1127.7295">Initialize()</text><rect fill="#F24D5C" height="6" style="stroke:#C82930;stroke-width:1.0;" width="6" x="54" y="1137.6797"/><text fill="#000000" font-family="sans-serif" font-size="14" lengthAdjust="spacing" text-decoration="underline" textLength="119" x="66" y="1144.0264">Post Launch Init()</text><rect fill="#F24D5C" height="6" style="stroke:#C82930;stroke-width:1.0;" width="6" x="54" y="1153.9766"/><text fill="#000000" font-family="sans-serif" font-size="14" lengthAdjust="spacing" text-decoration="underline" textLength="80" x="66" y="1160.3232">Shutdown()</text><ellipse cx="57" cy="1173.2734" fill="#84BE84" rx="3" ry="3" style="stroke:#038048;stroke-width:1.0;"/><text fill="#000000" font-family="sans-serif" font-size="14" lengthAdjust="spacing" textLength="197" x="66" y="1176.6201">Toggle Component Display()</text><polygon fill="#FFFF44" points="57,1184.5703,61,1188.5703,57,1192.5703,53,1188.5703" style="stroke:#B38D22;stroke-width:1.0;"/><text fill="#000000" font-family="sans-serif" font-size="14" lengthAdjust="spacing" textLength="83" x="66" y="1192.917">Actor Core()</text><polygon fill="#FFFF44" points="57,1200.8672,61,1204.8672,57,1208.8672,53,1204.8672" style="stroke:#B38D22;stroke-width:1.0;"/><text fill="#000000" font-family="sans-serif" font-size="14" lengthAdjust="spacing" textLength="111" x="66" y="1209.2139">Pre Launch Init()</text><ellipse cx="57" cy="1222.1641" fill="#84BE84" rx="3" ry="3" style="stroke:#038048;stroke-width:1.0;"/><text fill="#000000" font-family="sans-serif" font-size="14" lengthAdjust="spacing" textLength="153" x="66" y="1225.5107">Reset Manual Layout()</text><polygon fill="#FFFF44" points="57,1233.4609,61,1237.4609,57,1241.4609,53,1237.4609" style="stroke:#B38D22;stroke-width:1.0;"/><text fill="#000000" font-family="sans-serif" font-size="14" lengthAdjust="spacing" textLength="79" x="66" y="1241.8076">Stop Core()</text></g><!--class Engine--><g id="elem_Engine"><rect fill="#FFFFFF" height="48" id="Engine" rx="2.5" ry="2.5" style="stroke:#555555;stroke-width:0.5;" width="80" x="130" y="41"/><rect fill="#808080" height="32" rx="2.5" ry="2.5" style="stroke:#808080;stroke-width:0.5;" width="80" x="130" y="41"/><rect fill="#808080" height="2.5" style="stroke:#808080;stroke-width:0.5;" width="80" x="130" y="70.5"/><rect fill="none" height="48" id="Engine" rx="2.5" ry="2.5" style="stroke:#555555;stroke-width:0.5;" width="80" x="130" y="41"/><ellipse cx="145" cy="57" fill="#ADD1B2" rx="11" ry="11" style="stroke:#181818;stroke-width:1.0;"/><path d="M147.9688,62.6406 Q147.3906,62.9375 146.75,63.0781 Q146.1094,63.2344 145.4063,63.2344 Q142.9063,63.2344 141.5781,61.5938 Q140.2656,59.9375 140.2656,56.8125 Q140.2656,53.6875 141.5781,52.0313 Q142.9063,50.375 145.4063,50.375 Q146.1094,50.375 146.75,50.5313 Q147.4063,50.6875 147.9688,50.9844 L147.9688,53.7031 Q147.3438,53.125 146.75,52.8594 Q146.1563,52.5781 145.5313,52.5781 Q144.1875,52.5781 143.5,53.6563 Q142.8125,54.7188 142.8125,56.8125 Q142.8125,58.9063 143.5,59.9844 Q144.1875,61.0469 145.5313,61.0469 Q146.1563,61.0469 146.75,60.7813 Q147.3438,60.5 147.9688,59.9219 L147.9688,62.6406 Z " fill="#000000"/><text fill="#000000" font-family="sans-serif" font-size="14" lengthAdjust="spacing" textLength="48" x="159" y="61.8467">Engine</text><line style="stroke:#555555;stroke-width:0.5;" x1="131" x2="209" y1="73" y2="73"/><line style="stroke:#555555;stroke-width:0.5;" x1="131" x2="209" y1="81" y2="81"/></g><!--class Config--><g id="elem_Config"><rect fill="#FFFFFF" height="48" id="Config" rx="2.5" ry="2.5" style="stroke:#555555;stroke-width:0.5;" width="76" x="49" y="1348.11"/><rect fill="#808080" height="32" rx="2.5" ry="2.5" style="stroke:#808080;stroke-width:0.5;" width="76" x="49" y="1348.11"/><rect fill="#808080" height="2.5" style="stroke:#808080;stroke-width:0.5;" width="76" x="49" y="1377.61"/><rect fill="none" height="48" id="Config" rx="2.5" ry="2.5" style="stroke:#555555;stroke-width:0.5;" width="76" x="49" y="1348.11"/><ellipse cx="64" cy="1364.11" fill="#ADD1B2" rx="11" ry="11" style="stroke:#181818;stroke-width:1.0;"/><path d="M66.9688,1369.7506 Q66.3906,1370.0475 65.75,1370.1881 Q65.1094,1370.3444 64.4063,1370.3444 Q61.9063,1370.3444 60.5781,1368.7038 Q59.2656,1367.0475 59.2656,1363.9225 Q59.2656,1360.7975 60.5781,1359.1413 Q61.9063,1357.485 64.4063,1357.485 Q65.1094,1357.485 65.75,1357.6413 Q66.4063,1357.7975 66.9688,1358.0944 L66.9688,1360.8131 Q66.3438,1360.235 65.75,1359.9694 Q65.1563,1359.6881 64.5313,1359.6881 Q63.1875,1359.6881 62.5,1360.7663 Q61.8125,1361.8288 61.8125,1363.9225 Q61.8125,1366.0163 62.5,1367.0944 Q63.1875,1368.1569 64.5313,1368.1569 Q65.1563,1368.1569 65.75,1367.8913 Q66.3438,1367.61 66.9688,1367.0319 L66.9688,1369.7506 Z " fill="#000000"/><text fill="#000000" font-family="sans-serif" font-size="14" lengthAdjust="spacing" textLength="44" x="78" y="1368.9567">Config</text><line style="stroke:#555555;stroke-width:0.5;" x1="50" x2="124" y1="1380.11" y2="1380.11"/><line style="stroke:#555555;stroke-width:0.5;" x1="50" x2="124" y1="1388.11" y2="1388.11"/></g><!--class Message Enqueuer--><g id="elem_Message Enqueuer"><rect fill="#FFFFFF" height="48" id="Message Enqueuer" rx="2.5" ry="2.5" style="stroke:#555555;stroke-width:0.5;" width="167" x="180.5" y="1348.11"/><rect fill="#808080" height="32" rx="2.5" ry="2.5" style="stroke:#808080;stroke-width:0.5;" width="167" x="180.5" y="1348.11"/><rect fill="#808080" height="2.5" style="stroke:#808080;stroke-width:0.5;" width="167" x="180.5" y="1377.61"/><rect fill="none" height="48" id="Message Enqueuer" rx="2.5" ry="2.5" style="stroke:#555555;stroke-width:0.5;" width="167" x="180.5" y="1348.11"/><ellipse cx="195.5" cy="1364.11" fill="#ADD1B2" rx="11" ry="11" style="stroke:#181818;stroke-width:1.0;"/><path d="M198.4688,1369.7506 Q197.8906,1370.0475 197.25,1370.1881 Q196.6094,1370.3444 195.9063,1370.3444 Q193.4063,1370.3444 192.0781,1368.7038 Q190.7656,1367.0475 190.7656,1363.9225 Q190.7656,1360.7975 192.0781,1359.1413 Q193.4063,1357.485 195.9063,1357.485 Q196.6094,1357.485 197.25,1357.6413 Q197.9063,1357.7975 198.4688,1358.0944 L198.4688,1360.8131 Q197.8438,1360.235 197.25,1359.9694 Q196.6563,1359.6881 196.0313,1359.6881 Q194.6875,1359.6881 194,1360.7663 Q193.3125,1361.8288 193.3125,1363.9225 Q193.3125,1366.0163 194,1367.0944 Q194.6875,1368.1569 196.0313,1368.1569 Q196.6563,1368.1569 197.25,1367.8913 Q197.8438,1367.61 198.4688,1367.0319 L198.4688,1369.7506 Z " fill="#000000"/><text fill="#000000" font-family="sans-serif" font-size="14" lengthAdjust="spacing" textLength="135" x="209.5" y="1368.9567">Message Enqueuer</text><line style="stroke:#555555;stroke-width:0.5;" x1="181.5" x2="346.5" y1="1380.11" y2="1380.11"/><line style="stroke:#555555;stroke-width:0.5;" x1="181.5" x2="346.5" y1="1388.11" y2="1388.11"/></g><!--reverse link Engine to Base Software--><g id="link_Engine_Base Software"><path codeLine="72" d="M170,107.14 C170,131.53 170,155.49 170,206.62 " fill="none" id="Engine-backto-Base Software" style="stroke:#181818;stroke-width:1.0;"/><polygon fill="none" points="170,89.14,164,107.14,176,107.14,170,89.14" style="stroke:#181818;stroke-width:1.0;"/></g><!--reverse link Base Software to Config--><g id="link_Base Software_Config"><path codeLine="73" d="M101.1725,1261.4911 C95.7025,1303.8311 92.75,1326.6 90,1347.92 " fill="none" id="Base Software-backto-Config" style="stroke:#181818;stroke-width:1.0;"/><polygon fill="#181818" points="102.71,1249.59,97.9742,1255.028,101.1725,1261.4911,105.9083,1256.0531,102.71,1249.59" style="stroke:#181818;stroke-width:1.0;"/></g><!--reverse link Base Software to Message Enqueuer--><g id="link_Base Software_Message Enqueuer"><path codeLine="75" d="M247.9487,1261.4634 C254.1487,1303.8034 257.48,1326.6 260.6,1347.92 " fill="none" id="Base Software-backto-Message Enqueuer" style="stroke:#181818;stroke-width:1.0;"/><polygon fill="none" points="246.21,1249.59,243.1215,1256.1062,247.9487,1261.4634,251.0371,1254.9471,246.21,1249.59" style="stroke:#181818;stroke-width:1.0;"/></g><!--SRC=[bPRVRzem4CVVyrTOz6KRojGzR9hGNe12XmHRrvJk4Pda0bOT7_EF8jRrVzyvII6qIKfJLSBn9tVdyttFDc2PuXcO3OyXWWtNtA9clS3S2UL76HjARio0ntShZKubGvG4d8tpvmM6EW5T8f_pvpaoHcLBu3n_dWFVWPED5mw_dlk_e49RtD0_MwArcB54Q8YjG1N4tWhh3BW15c5gjrp3HtalnR8tuqALFu-cE-mXU4W5oEIHXP5RqZA4uXOCwx6-rdp7CANedB6Wzs0tsaXXwKqh5KOx6cUBo7BhF3bIBcFpJryEn1KaOgK1gcOYguLQ7PWP9Y1D6p54bOgLemsa910ulItoUI3wZXBrD3r0bC1LnGDNZikQcUuKLoj85Z_hFklEvpUBYKgnpkH8QrzCBoT-Swqe-3fxLnhk1LAcVCAWBb_Tnfdm6bBGeE9yu_OxOOWNyIDxoC2kiLoHKE_UrqqLQQYVgoHmlaby43TWBFj10gh_u9S3lMCJPQns6IXhsZ3A9Bi0ouLim4gVbIZswwt_OCgTYjVCLtqhKAbunbN2-abIprzffDoQmxBPw9wMLGzVKrT1iaOQdO5oRMYqnYqZEN53mSGa1TMQWK9Ih91KBHcUj3yXrG7xgLejvC9Z4MZHK1LXcSJXMgD2UWkwdJlIwNpI2b_0qf7usYsEkPEM0bM2UdShMMfyuAXbAdCA-afyrx11RTabACXFZbFWMm5Rq8sMXnfytlDgCQr8QO_Kuw3LSRMZruDKgtGIlYRKa8HHDNQgqtek0gw9Iwb5lifUEIdPvNnoK7n3X9D40lFjBQwVBxTrfFXIGjAKZ5I3oIlLQfIcdSgxSKCmAX6nBuj5VeWtfS7chQzPfNbtc0bZl61QsWFv4vPaAlusPH6f6vJRuzacTyuckCrzx3lF3Ps1bDaXPjJJg43OXJ3KhtPLwAmV-ylJ43KSlQOZxRdNQfEazPUxCkKxT4VpPv6_vPGMWyUWCr9qSfNNcKsl67NOjtzX-CORJ_362z87xw7eNK_UYr4dUAifzAQAN8tf8WTRr7TFDcTqlF0LoL_zyRBMPFq_]--></g></svg>