<?xml version="1.0" encoding="us-ascii" standalone="no"?><svg xmlns="http://www.w3.org/2000/svg" xmlns:xlink="http://www.w3.org/1999/xlink" contentStyleType="text/css" height="912px" preserveAspectRatio="none" style="width:1122px;height:912px;background:#FFFFFF;" version="1.1" viewBox="0 0 1122 912" width="1122px" zoomAndPan="magnify"><defs/><g><!--cluster Engine.lvlib--><g id="cluster_Engine.lvlib"><path d="M8.5,129 L98.5,129 A3.75,3.75 0 0 1 101,131.5 L108,151.2969 L1112.5,151.2969 A2.5,2.5 0 0 1 1115,153.7969 L1115,779.59 A2.5,2.5 0 0 1 1112.5,782.09 L8.5,782.09 A2.5,2.5 0 0 1 6,779.59 L6,131.5 A2.5,2.5 0 0 1 8.5,129 " fill="none" style="stroke:#000000;stroke-width:1.5;"/><line style="stroke:#000000;stroke-width:1.5;" x1="6" x2="108" y1="151.2969" y2="151.2969"/><text fill="#000000" font-family="sans-serif" font-size="14" font-weight="bold" lengthAdjust="spacing" textLength="89" x="10" y="143.9951">Engine.lvlib</text></g><!--cluster Actor Framework.lvlibp--><g id="cluster_Actor Framework.lvlibp"><path d="M431.5,6 L615.5,6 A3.75,3.75 0 0 1 618,8.5 L625,28.2969 L754.5,28.2969 A2.5,2.5 0 0 1 757,30.7969 L757,102.5 A2.5,2.5 0 0 1 754.5,105 L431.5,105 A2.5,2.5 0 0 1 429,102.5 L429,8.5 A2.5,2.5 0 0 1 431.5,6 " fill="none" style="stroke:#000000;stroke-width:1.5;"/><line style="stroke:#000000;stroke-width:1.5;" x1="429" x2="625" y1="28.2969" y2="28.2969"/><text fill="#000000" font-family="sans-serif" font-size="14" font-weight="bold" lengthAdjust="spacing" textLength="183" x="433" y="20.9951">Actor Framework.lvlibp</text></g><!--cluster State Actor.lvlibp--><g id="cluster_State Actor.lvlibp"><path d="M867.5,6 L1003.5,6 A3.75,3.75 0 0 1 1006,8.5 L1013,28.2969 L1013.5,28.2969 A2.5,2.5 0 0 1 1016,30.7969 L1016,102.5 A2.5,2.5 0 0 1 1013.5,105 L867.5,105 A2.5,2.5 0 0 1 865,102.5 L865,8.5 A2.5,2.5 0 0 1 867.5,6 " fill="none" style="stroke:#000000;stroke-width:1.5;"/><line style="stroke:#000000;stroke-width:1.5;" x1="865" x2="1013" y1="28.2969" y2="28.2969"/><text fill="#000000" font-family="sans-serif" font-size="14" font-weight="bold" lengthAdjust="spacing" textLength="135" x="869" y="20.9951">State Actor.lvlibp</text></g><!--cluster QDMH.lvlibp--><g id="cluster_QDMH.lvlibp"><path d="M888.5,806.09 L982.5,806.09 A3.75,3.75 0 0 1 985,808.59 L992,828.3869 L992.5,828.3869 A2.5,2.5 0 0 1 995,830.8869 L995,902.59 A2.5,2.5 0 0 1 992.5,905.09 L888.5,905.09 A2.5,2.5 0 0 1 886,902.59 L886,808.59 A2.5,2.5 0 0 1 888.5,806.09 " fill="none" style="stroke:#000000;stroke-width:1.5;"/><line style="stroke:#000000;stroke-width:1.5;" x1="886" x2="992" y1="828.3869" y2="828.3869"/><text fill="#000000" font-family="sans-serif" font-size="14" font-weight="bold" lengthAdjust="spacing" textLength="93" x="890" y="821.0851">QDMH.lvlibp</text></g><!--class Adjust Splitter Msg--><g id="elem_Adjust Splitter Msg"><rect codeLine="8" fill="#FFFFFF" height="113.1875" id="Adjust Splitter Msg" rx="2.5" ry="2.5" style="stroke:#555555;stroke-width:0.5;" width="171" x="574.5" y="408.45"/><rect fill="#808080" height="32" rx="2.5" ry="2.5" style="stroke:#808080;stroke-width:0.5;" width="171" x="574.5" y="408.45"/><rect fill="#808080" height="2.5" style="stroke:#808080;stroke-width:0.5;" width="171" x="574.5" y="437.95"/><rect codeLine="8" fill="none" height="113.1875" id="Adjust Splitter Msg" rx="2.5" ry="2.5" style="stroke:#555555;stroke-width:0.5;" width="171" x="574.5" y="408.45"/><ellipse cx="594.45" cy="424.45" fill="#ADD1B2" rx="11" ry="11" style="stroke:#181818;stroke-width:1.0;"/><path d="M597.4188,430.0906 Q596.8406,430.3875 596.2,430.5281 Q595.5594,430.6844 594.8563,430.6844 Q592.3563,430.6844 591.0281,429.0438 Q589.7156,427.3875 589.7156,424.2625 Q589.7156,421.1375 591.0281,419.4813 Q592.3563,417.825 594.8563,417.825 Q595.5594,417.825 596.2,417.9813 Q596.8563,418.1375 597.4188,418.4344 L597.4188,421.1531 Q596.7938,420.575 596.2,420.3094 Q595.6063,420.0281 594.9813,420.0281 Q593.6375,420.0281 592.95,421.1063 Q592.2625,422.1688 592.2625,424.2625 Q592.2625,426.3563 592.95,427.4344 Q593.6375,428.4969 594.9813,428.4969 Q595.6063,428.4969 596.2,428.2313 Q596.7938,427.95 597.4188,427.3719 L597.4188,430.0906 Z " fill="#000000"/><text fill="#000000" font-family="sans-serif" font-size="14" lengthAdjust="spacing" textLength="128" x="609.55" y="429.2967">Adjust Splitter Msg</text><line style="stroke:#555555;stroke-width:0.5;" x1="575.5" x2="744.5" y1="440.45" y2="440.45"/><rect fill="none" height="6" style="stroke:#C82930;stroke-width:1.0;" width="6" x="582.5" y="451.0984"/><text fill="#000000" font-family="sans-serif" font-size="14" lengthAdjust="spacing" textLength="139" x="594.5" y="457.4451">Splitter Info : Cluster</text><rect fill="none" height="6" style="stroke:#C82930;stroke-width:1.0;" width="6" x="582.5" y="467.3953"/><text fill="#000000" font-family="sans-serif" font-size="14" lengthAdjust="spacing" textLength="108" x="594.5" y="473.742">Show : Boolean</text><line style="stroke:#555555;stroke-width:0.5;" x1="575.5" x2="744.5" y1="481.0438" y2="481.0438"/><ellipse cx="585.5" cy="494.6922" fill="#84BE84" rx="3" ry="3" style="stroke:#038048;stroke-width:1.0;"/><text fill="#000000" font-family="sans-serif" font-size="14" lengthAdjust="spacing" text-decoration="underline" textLength="145" x="594.5" y="498.0389">Send Adjust Splitter()</text><ellipse cx="585.5" cy="510.9891" fill="#84BE84" rx="3" ry="3" style="stroke:#038048;stroke-width:1.0;"/><text fill="#000000" font-family="sans-serif" font-size="14" lengthAdjust="spacing" textLength="30" x="594.5" y="514.3357">Do()</text></g><!--class Toggle Component Display Msg--><g id="elem_Toggle Component Display Msg"><rect codeLine="18" fill="#FFFFFF" height="113.1875" id="Toggle Component Display Msg" rx="2.5" ry="2.5" style="stroke:#555555;stroke-width:0.5;" width="263" x="276.5" y="408.45"/><rect fill="#808080" height="32" rx="2.5" ry="2.5" style="stroke:#808080;stroke-width:0.5;" width="263" x="276.5" y="408.45"/><rect fill="#808080" height="2.5" style="stroke:#808080;stroke-width:0.5;" width="263" x="276.5" y="437.95"/><rect codeLine="18" fill="none" height="113.1875" id="Toggle Component Display Msg" rx="2.5" ry="2.5" style="stroke:#555555;stroke-width:0.5;" width="263" x="276.5" y="408.45"/><ellipse cx="296.45" cy="424.45" fill="#ADD1B2" rx="11" ry="11" style="stroke:#181818;stroke-width:1.0;"/><path d="M299.4188,430.0906 Q298.8406,430.3875 298.2,430.5281 Q297.5594,430.6844 296.8563,430.6844 Q294.3563,430.6844 293.0281,429.0438 Q291.7156,427.3875 291.7156,424.2625 Q291.7156,421.1375 293.0281,419.4813 Q294.3563,417.825 296.8563,417.825 Q297.5594,417.825 298.2,417.9813 Q298.8563,418.1375 299.4188,418.4344 L299.4188,421.1531 Q298.7938,420.575 298.2,420.3094 Q297.6063,420.0281 296.9813,420.0281 Q295.6375,420.0281 294.95,421.1063 Q294.2625,422.1688 294.2625,424.2625 Q294.2625,426.3563 294.95,427.4344 Q295.6375,428.4969 296.9813,428.4969 Q297.6063,428.4969 298.2,428.2313 Q298.7938,427.95 299.4188,427.3719 L299.4188,430.0906 Z " fill="#000000"/><text fill="#000000" font-family="sans-serif" font-size="14" lengthAdjust="spacing" textLength="220" x="311.55" y="429.2967">Toggle Component Display Msg</text><line style="stroke:#555555;stroke-width:0.5;" x1="277.5" x2="538.5" y1="440.45" y2="440.45"/><rect fill="none" height="6" style="stroke:#C82930;stroke-width:1.0;" width="6" x="284.5" y="451.0984"/><text fill="#000000" font-family="sans-serif" font-size="14" lengthAdjust="spacing" textLength="112" x="296.5" y="457.4451">Identifier : String</text><rect fill="none" height="6" style="stroke:#C82930;stroke-width:1.0;" width="6" x="284.5" y="467.3953"/><text fill="#000000" font-family="sans-serif" font-size="14" lengthAdjust="spacing" textLength="108" x="296.5" y="473.742">Show : Boolean</text><line style="stroke:#555555;stroke-width:0.5;" x1="277.5" x2="538.5" y1="481.0438" y2="481.0438"/><ellipse cx="287.5" cy="494.6922" fill="#84BE84" rx="3" ry="3" style="stroke:#038048;stroke-width:1.0;"/><text fill="#000000" font-family="sans-serif" font-size="14" lengthAdjust="spacing" text-decoration="underline" textLength="237" x="296.5" y="498.0389">Send Toggle Component Display()</text><ellipse cx="287.5" cy="510.9891" fill="#84BE84" rx="3" ry="3" style="stroke:#038048;stroke-width:1.0;"/><text fill="#000000" font-family="sans-serif" font-size="14" lengthAdjust="spacing" textLength="30" x="296.5" y="514.3357">Do()</text></g><!--class Reset Manual Layout Msg--><g id="elem_Reset Manual Layout Msg"><rect codeLine="28" fill="#FFFFFF" height="80.5938" id="Reset Manual Layout Msg" rx="2.5" ry="2.5" style="stroke:#555555;stroke-width:0.5;" width="219" x="22.5" y="424.75"/><rect fill="#808080" height="32" rx="2.5" ry="2.5" style="stroke:#808080;stroke-width:0.5;" width="219" x="22.5" y="424.75"/><rect fill="#808080" height="2.5" style="stroke:#808080;stroke-width:0.5;" width="219" x="22.5" y="454.25"/><rect codeLine="28" fill="none" height="80.5938" id="Reset Manual Layout Msg" rx="2.5" ry="2.5" style="stroke:#555555;stroke-width:0.5;" width="219" x="22.5" y="424.75"/><ellipse cx="42.45" cy="440.75" fill="#ADD1B2" rx="11" ry="11" style="stroke:#181818;stroke-width:1.0;"/><path d="M45.4188,446.3906 Q44.8406,446.6875 44.2,446.8281 Q43.5594,446.9844 42.8563,446.9844 Q40.3563,446.9844 39.0281,445.3438 Q37.7156,443.6875 37.7156,440.5625 Q37.7156,437.4375 39.0281,435.7813 Q40.3563,434.125 42.8563,434.125 Q43.5594,434.125 44.2,434.2813 Q44.8563,434.4375 45.4188,434.7344 L45.4188,437.4531 Q44.7938,436.875 44.2,436.6094 Q43.6063,436.3281 42.9813,436.3281 Q41.6375,436.3281 40.95,437.4063 Q40.2625,438.4688 40.2625,440.5625 Q40.2625,442.6563 40.95,443.7344 Q41.6375,444.7969 42.9813,444.7969 Q43.6063,444.7969 44.2,444.5313 Q44.7938,444.25 45.4188,443.6719 L45.4188,446.3906 Z " fill="#000000"/><text fill="#000000" font-family="sans-serif" font-size="14" lengthAdjust="spacing" textLength="176" x="57.55" y="445.5967">Reset Manual Layout Msg</text><line style="stroke:#555555;stroke-width:0.5;" x1="23.5" x2="240.5" y1="456.75" y2="456.75"/><line style="stroke:#555555;stroke-width:0.5;" x1="23.5" x2="240.5" y1="464.75" y2="464.75"/><ellipse cx="33.5" cy="478.3984" fill="#84BE84" rx="3" ry="3" style="stroke:#038048;stroke-width:1.0;"/><text fill="#000000" font-family="sans-serif" font-size="14" lengthAdjust="spacing" text-decoration="underline" textLength="193" x="42.5" y="481.7451">Send Reset Manual Layout()</text><ellipse cx="33.5" cy="494.6953" fill="#84BE84" rx="3" ry="3" style="stroke:#038048;stroke-width:1.0;"/><text fill="#000000" font-family="sans-serif" font-size="14" lengthAdjust="spacing" textLength="30" x="42.5" y="498.042">Do()</text></g><!--class Engine--><g id="elem_Engine"><rect codeLine="36" fill="#FFFFFF" height="602.0938" id="Engine" rx="2.5" ry="2.5" style="stroke:#555555;stroke-width:0.5;" width="318" x="781" y="164"/><rect fill="#808080" height="32" rx="2.5" ry="2.5" style="stroke:#808080;stroke-width:0.5;" width="318" x="781" y="164"/><rect fill="#808080" height="2.5" style="stroke:#808080;stroke-width:0.5;" width="318" x="781" y="193.5"/><rect codeLine="36" fill="none" height="602.0938" id="Engine" rx="2.5" ry="2.5" style="stroke:#555555;stroke-width:0.5;" width="318" x="781" y="164"/><ellipse cx="911.75" cy="180" fill="#ADD1B2" rx="11" ry="11" style="stroke:#181818;stroke-width:1.0;"/><path d="M914.7188,185.6406 Q914.1406,185.9375 913.5,186.0781 Q912.8594,186.2344 912.1563,186.2344 Q909.6563,186.2344 908.3281,184.5938 Q907.0156,182.9375 907.0156,179.8125 Q907.0156,176.6875 908.3281,175.0313 Q909.6563,173.375 912.1563,173.375 Q912.8594,173.375 913.5,173.5313 Q914.1563,173.6875 914.7188,173.9844 L914.7188,176.7031 Q914.0938,176.125 913.5,175.8594 Q912.9063,175.5781 912.2813,175.5781 Q910.9375,175.5781 910.25,176.6563 Q909.5625,177.7188 909.5625,179.8125 Q909.5625,181.9063 910.25,182.9844 Q910.9375,184.0469 912.2813,184.0469 Q912.9063,184.0469 913.5,183.7813 Q914.0938,183.5 914.7188,182.9219 L914.7188,185.6406 Z " fill="#000000"/><text fill="#000000" font-family="sans-serif" font-size="14" lengthAdjust="spacing" textLength="48" x="932.25" y="184.8467">Engine</text><line style="stroke:#555555;stroke-width:0.5;" x1="782" x2="1098" y1="196" y2="196"/><ellipse cx="792" cy="209.6484" fill="none" rx="3" ry="3" style="stroke:#038048;stroke-width:1.0;"/><text fill="#000000" font-family="sans-serif" font-size="14" lengthAdjust="spacing" textLength="114" x="801" y="212.9951">isRoot : Boolean</text><ellipse cx="792" cy="225.9453" fill="none" rx="3" ry="3" style="stroke:#038048;stroke-width:1.0;"/><text fill="#000000" font-family="sans-serif" font-size="14" lengthAdjust="spacing" textLength="110" x="801" y="229.292">Self Q : LV Class</text><ellipse cx="792" cy="242.2422" fill="none" rx="3" ry="3" style="stroke:#038048;stroke-width:1.0;"/><text fill="#000000" font-family="sans-serif" font-size="14" lengthAdjust="spacing" textLength="123" x="801" y="245.5889">Caller Q : LV Class</text><rect fill="none" height="6" style="stroke:#C82930;stroke-width:1.0;" width="6" x="789" y="255.5391"/><text fill="#000000" font-family="sans-serif" font-size="14" lengthAdjust="spacing" textLength="185" x="801" y="261.8857">Application Directory : Path</text><ellipse cx="792" cy="274.8359" fill="none" rx="3" ry="3" style="stroke:#038048;stroke-width:1.0;"/><text fill="#000000" font-family="sans-serif" font-size="14" lengthAdjust="spacing" textLength="114" x="801" y="278.1826">VI_Ref : kLVObjVI</text><ellipse cx="792" cy="291.1328" fill="none" rx="3" ry="3" style="stroke:#038048;stroke-width:1.0;"/><text fill="#000000" font-family="sans-serif" font-size="14" lengthAdjust="spacing" textLength="109" x="801" y="294.4795">Events : Cluster</text><ellipse cx="792" cy="307.4297" fill="none" rx="3" ry="3" style="stroke:#038048;stroke-width:1.0;"/><text fill="#000000" font-family="sans-serif" font-size="14" lengthAdjust="spacing" textLength="168" x="801" y="310.7764">Report Queue : LV Class</text><ellipse cx="792" cy="323.7266" fill="none" rx="3" ry="3" style="stroke:#038048;stroke-width:1.0;"/><text fill="#000000" font-family="sans-serif" font-size="14" lengthAdjust="spacing" textLength="147" x="801" y="327.0732">Pedigree : Enum U16</text><line style="stroke:#555555;stroke-width:0.5;" x1="782" x2="1098" y1="334.375" y2="334.375"/><ellipse cx="792" cy="348.0234" fill="#84BE84" rx="3" ry="3" style="stroke:#038048;stroke-width:1.0;"/><text fill="#000000" font-family="sans-serif" font-size="14" lengthAdjust="spacing" text-decoration="underline" textLength="292" x="801" y="351.3701">Send Asynch Telemetry Descriptor Event()</text><ellipse cx="792" cy="364.3203" fill="#84BE84" rx="3" ry="3" style="stroke:#038048;stroke-width:1.0;"/><text fill="#000000" font-family="sans-serif" font-size="14" lengthAdjust="spacing" text-decoration="underline" textLength="228" x="801" y="367.667">Send Interface Command Event()</text><ellipse cx="792" cy="380.6172" fill="#84BE84" rx="3" ry="3" style="stroke:#038048;stroke-width:1.0;"/><text fill="#000000" font-family="sans-serif" font-size="14" lengthAdjust="spacing" text-decoration="underline" textLength="238" x="801" y="383.9639">Send Telemetry Descriptor Event()</text><ellipse cx="792" cy="396.9141" fill="#84BE84" rx="3" ry="3" style="stroke:#038048;stroke-width:1.0;"/><text fill="#000000" font-family="sans-serif" font-size="14" lengthAdjust="spacing" text-decoration="underline" textLength="143" x="801" y="400.2607">Send Launch Event()</text><ellipse cx="792" cy="413.2109" fill="#84BE84" rx="3" ry="3" style="stroke:#038048;stroke-width:1.0;"/><text fill="#000000" font-family="sans-serif" font-size="14" lengthAdjust="spacing" text-decoration="underline" textLength="164" x="801" y="416.5576">Send QuickStart Event()</text><ellipse cx="792" cy="429.5078" fill="#84BE84" rx="3" ry="3" style="stroke:#038048;stroke-width:1.0;"/><text fill="#000000" font-family="sans-serif" font-size="14" lengthAdjust="spacing" text-decoration="underline" textLength="151" x="801" y="432.8545">Send SafeBTE Event()</text><ellipse cx="792" cy="445.8047" fill="#84BE84" rx="3" ry="3" style="stroke:#038048;stroke-width:1.0;"/><text fill="#000000" font-family="sans-serif" font-size="14" lengthAdjust="spacing" text-decoration="underline" textLength="187" x="801" y="449.1514">Send ToggleSupply Event()</text><ellipse cx="792" cy="462.1016" fill="#84BE84" rx="3" ry="3" style="stroke:#038048;stroke-width:1.0;"/><text fill="#000000" font-family="sans-serif" font-size="14" lengthAdjust="spacing" text-decoration="underline" textLength="168" x="801" y="465.4482">Send UUTSupply Event()</text><ellipse cx="792" cy="478.3984" fill="#84BE84" rx="3" ry="3" style="stroke:#038048;stroke-width:1.0;"/><text fill="#000000" font-family="sans-serif" font-size="14" lengthAdjust="spacing" text-decoration="underline" textLength="190" x="801" y="481.7451">Toggle Instrument Display()</text><ellipse cx="792" cy="494.6953" fill="#84BE84" rx="3" ry="3" style="stroke:#038048;stroke-width:1.0;"/><text fill="#000000" font-family="sans-serif" font-size="14" lengthAdjust="spacing" text-decoration="underline" textLength="121" x="801" y="498.042">Check for Errors()</text><ellipse cx="792" cy="510.9922" fill="#84BE84" rx="3" ry="3" style="stroke:#038048;stroke-width:1.0;"/><text fill="#000000" font-family="sans-serif" font-size="14" lengthAdjust="spacing" text-decoration="underline" textLength="172" x="801" y="514.3389">Send Automation Event()</text><ellipse cx="792" cy="527.2891" fill="#84BE84" rx="3" ry="3" style="stroke:#038048;stroke-width:1.0;"/><text fill="#000000" font-family="sans-serif" font-size="14" lengthAdjust="spacing" text-decoration="underline" textLength="188" x="801" y="530.6357">Send SystemStatus Event()</text><ellipse cx="792" cy="543.5859" fill="#84BE84" rx="3" ry="3" style="stroke:#038048;stroke-width:1.0;"/><text fill="#000000" font-family="sans-serif" font-size="14" lengthAdjust="spacing" text-decoration="underline" textLength="158" x="801" y="546.9326">Send Operator_Name()</text><ellipse cx="792" cy="559.8828" fill="#84BE84" rx="3" ry="3" style="stroke:#038048;stroke-width:1.0;"/><text fill="#000000" font-family="sans-serif" font-size="14" lengthAdjust="spacing" text-decoration="underline" textLength="112" x="801" y="563.2295">Send Pedigree()</text><ellipse cx="792" cy="576.1797" fill="#84BE84" rx="3" ry="3" style="stroke:#038048;stroke-width:1.0;"/><text fill="#000000" font-family="sans-serif" font-size="14" lengthAdjust="spacing" text-decoration="underline" textLength="128" x="801" y="579.5264">Send Test_Name()</text><ellipse cx="792" cy="592.4766" fill="#84BE84" rx="3" ry="3" style="stroke:#038048;stroke-width:1.0;"/><text fill="#000000" font-family="sans-serif" font-size="14" lengthAdjust="spacing" text-decoration="underline" textLength="126" x="801" y="595.8232">Send UUT_Name()</text><ellipse cx="792" cy="608.7734" fill="#84BE84" rx="3" ry="3" style="stroke:#038048;stroke-width:1.0;"/><text fill="#000000" font-family="sans-serif" font-size="14" lengthAdjust="spacing" text-decoration="underline" textLength="152" x="801" y="612.1201">Send Witness_Name()</text><rect fill="#F24D5C" height="6" style="stroke:#C82930;stroke-width:1.0;" width="6" x="789" y="622.0703"/><text fill="#000000" font-family="sans-serif" font-size="14" lengthAdjust="spacing" text-decoration="underline" textLength="183" x="801" y="628.417">Create Event References()</text><rect fill="#F24D5C" height="6" style="stroke:#C82930;stroke-width:1.0;" width="6" x="789" y="638.3672"/><text fill="#000000" font-family="sans-serif" font-size="14" lengthAdjust="spacing" text-decoration="underline" textLength="141" x="801" y="644.7139">Create New Report()</text><rect fill="#F24D5C" height="6" style="stroke:#C82930;stroke-width:1.0;" width="6" x="789" y="654.6641"/><text fill="#000000" font-family="sans-serif" font-size="14" lengthAdjust="spacing" text-decoration="underline" textLength="51" x="801" y="661.0107">Setup()</text><ellipse cx="792" cy="673.9609" fill="#84BE84" rx="3" ry="3" style="stroke:#038048;stroke-width:1.0;"/><text fill="#000000" font-family="sans-serif" font-size="14" lengthAdjust="spacing" textLength="153" x="801" y="677.3076">Reset Manual Layout()</text><ellipse cx="792" cy="690.2578" fill="#84BE84" rx="3" ry="3" style="stroke:#038048;stroke-width:1.0;"/><text fill="#000000" font-family="sans-serif" font-size="14" lengthAdjust="spacing" textLength="105" x="801" y="693.6045">Adjust Splitter()</text><ellipse cx="792" cy="706.5547" fill="#84BE84" rx="3" ry="3" style="stroke:#038048;stroke-width:1.0;"/><text fill="#000000" font-family="sans-serif" font-size="14" lengthAdjust="spacing" textLength="85" x="801" y="709.9014">Build Class()</text><ellipse cx="792" cy="722.8516" fill="#84BE84" rx="3" ry="3" style="stroke:#038048;stroke-width:1.0;"/><text fill="#000000" font-family="sans-serif" font-size="14" lengthAdjust="spacing" textLength="197" x="801" y="726.1982">Toggle Component Display()</text><polygon fill="#FFFF44" points="792,734.1484,796,738.1484,792,742.1484,788,738.1484" style="stroke:#B38D22;stroke-width:1.0;"/><text fill="#000000" font-family="sans-serif" font-size="14" lengthAdjust="spacing" textLength="111" x="801" y="742.4951">Pre Launch Init()</text><polygon fill="#FFFF44" points="792,750.4453,796,754.4453,792,758.4453,788,754.4453" style="stroke:#B38D22;stroke-width:1.0;"/><text fill="#000000" font-family="sans-serif" font-size="14" lengthAdjust="spacing" textLength="121" x="801" y="758.792">Substitute Actor()</text></g><!--class Message--><g id="elem_Message"><rect fill="#FFFFFF" height="48" id="Message" rx="2.5" ry="2.5" style="stroke:#555555;stroke-width:0.5;" width="95" x="444.5" y="41"/><rect fill="#808080" height="32" rx="2.5" ry="2.5" style="stroke:#808080;stroke-width:0.5;" width="95" x="444.5" y="41"/><rect fill="#808080" height="2.5" style="stroke:#808080;stroke-width:0.5;" width="95" x="444.5" y="70.5"/><rect fill="none" height="48" id="Message" rx="2.5" ry="2.5" style="stroke:#555555;stroke-width:0.5;" width="95" x="444.5" y="41"/><ellipse cx="459.5" cy="57" fill="#ADD1B2" rx="11" ry="11" style="stroke:#181818;stroke-width:1.0;"/><path d="M462.4688,62.6406 Q461.8906,62.9375 461.25,63.0781 Q460.6094,63.2344 459.9063,63.2344 Q457.4063,63.2344 456.0781,61.5938 Q454.7656,59.9375 454.7656,56.8125 Q454.7656,53.6875 456.0781,52.0313 Q457.4063,50.375 459.9063,50.375 Q460.6094,50.375 461.25,50.5313 Q461.9063,50.6875 462.4688,50.9844 L462.4688,53.7031 Q461.8438,53.125 461.25,52.8594 Q460.6563,52.5781 460.0313,52.5781 Q458.6875,52.5781 458,53.6563 Q457.3125,54.7188 457.3125,56.8125 Q457.3125,58.9063 458,59.9844 Q458.6875,61.0469 460.0313,61.0469 Q460.6563,61.0469 461.25,60.7813 Q461.8438,60.5 462.4688,59.9219 L462.4688,62.6406 Z " fill="#000000"/><text fill="#000000" font-family="sans-serif" font-size="14" lengthAdjust="spacing" textLength="63" x="473.5" y="61.8467">Message</text><line style="stroke:#555555;stroke-width:0.5;" x1="445.5" x2="538.5" y1="73" y2="73"/><line style="stroke:#555555;stroke-width:0.5;" x1="445.5" x2="538.5" y1="81" y2="81"/></g><!--class Message Enqueuer--><g id="elem_Message Enqueuer"><rect fill="#FFFFFF" height="48" id="Message Enqueuer" rx="2.5" ry="2.5" style="stroke:#555555;stroke-width:0.5;" width="167" x="574.5" y="41"/><rect fill="#808080" height="32" rx="2.5" ry="2.5" style="stroke:#808080;stroke-width:0.5;" width="167" x="574.5" y="41"/><rect fill="#808080" height="2.5" style="stroke:#808080;stroke-width:0.5;" width="167" x="574.5" y="70.5"/><rect fill="none" height="48" id="Message Enqueuer" rx="2.5" ry="2.5" style="stroke:#555555;stroke-width:0.5;" width="167" x="574.5" y="41"/><ellipse cx="589.5" cy="57" fill="#ADD1B2" rx="11" ry="11" style="stroke:#181818;stroke-width:1.0;"/><path d="M592.4688,62.6406 Q591.8906,62.9375 591.25,63.0781 Q590.6094,63.2344 589.9063,63.2344 Q587.4063,63.2344 586.0781,61.5938 Q584.7656,59.9375 584.7656,56.8125 Q584.7656,53.6875 586.0781,52.0313 Q587.4063,50.375 589.9063,50.375 Q590.6094,50.375 591.25,50.5313 Q591.9063,50.6875 592.4688,50.9844 L592.4688,53.7031 Q591.8438,53.125 591.25,52.8594 Q590.6563,52.5781 590.0313,52.5781 Q588.6875,52.5781 588,53.6563 Q587.3125,54.7188 587.3125,56.8125 Q587.3125,58.9063 588,59.9844 Q588.6875,61.0469 590.0313,61.0469 Q590.6563,61.0469 591.25,60.7813 Q591.8438,60.5 592.4688,59.9219 L592.4688,62.6406 Z " fill="#000000"/><text fill="#000000" font-family="sans-serif" font-size="14" lengthAdjust="spacing" textLength="135" x="603.5" y="61.8467">Message Enqueuer</text><line style="stroke:#555555;stroke-width:0.5;" x1="575.5" x2="740.5" y1="73" y2="73"/><line style="stroke:#555555;stroke-width:0.5;" x1="575.5" x2="740.5" y1="81" y2="81"/></g><!--class State Actor--><g id="elem_State Actor"><rect fill="#FFFFFF" height="48" id="State Actor" rx="2.5" ry="2.5" style="stroke:#555555;stroke-width:0.5;" width="108" x="886" y="41"/><rect fill="#808080" height="32" rx="2.5" ry="2.5" style="stroke:#808080;stroke-width:0.5;" width="108" x="886" y="41"/><rect fill="#808080" height="2.5" style="stroke:#808080;stroke-width:0.5;" width="108" x="886" y="70.5"/><rect fill="none" height="48" id="State Actor" rx="2.5" ry="2.5" style="stroke:#555555;stroke-width:0.5;" width="108" x="886" y="41"/><ellipse cx="901" cy="57" fill="#ADD1B2" rx="11" ry="11" style="stroke:#181818;stroke-width:1.0;"/><path d="M903.9688,62.6406 Q903.3906,62.9375 902.75,63.0781 Q902.1094,63.2344 901.4063,63.2344 Q898.9063,63.2344 897.5781,61.5938 Q896.2656,59.9375 896.2656,56.8125 Q896.2656,53.6875 897.5781,52.0313 Q898.9063,50.375 901.4063,50.375 Q902.1094,50.375 902.75,50.5313 Q903.4063,50.6875 903.9688,50.9844 L903.9688,53.7031 Q903.3438,53.125 902.75,52.8594 Q902.1563,52.5781 901.5313,52.5781 Q900.1875,52.5781 899.5,53.6563 Q898.8125,54.7188 898.8125,56.8125 Q898.8125,58.9063 899.5,59.9844 Q900.1875,61.0469 901.5313,61.0469 Q902.1563,61.0469 902.75,60.7813 Q903.3438,60.5 903.9688,59.9219 L903.9688,62.6406 Z " fill="#000000"/><text fill="#000000" font-family="sans-serif" font-size="14" lengthAdjust="spacing" textLength="76" x="915" y="61.8467">State Actor</text><line style="stroke:#555555;stroke-width:0.5;" x1="887" x2="993" y1="73" y2="73"/><line style="stroke:#555555;stroke-width:0.5;" x1="887" x2="993" y1="81" y2="81"/></g><!--class QDMH--><g id="elem_QDMH"><rect fill="#FFFFFF" height="48" id="QDMH" rx="2.5" ry="2.5" style="stroke:#555555;stroke-width:0.5;" width="76" x="902" y="841.09"/><rect fill="#808080" height="32" rx="2.5" ry="2.5" style="stroke:#808080;stroke-width:0.5;" width="76" x="902" y="841.09"/><rect fill="#808080" height="2.5" style="stroke:#808080;stroke-width:0.5;" width="76" x="902" y="870.59"/><rect fill="none" height="48" id="QDMH" rx="2.5" ry="2.5" style="stroke:#555555;stroke-width:0.5;" width="76" x="902" y="841.09"/><ellipse cx="917" cy="857.09" fill="#ADD1B2" rx="11" ry="11" style="stroke:#181818;stroke-width:1.0;"/><path d="M919.9688,862.7306 Q919.3906,863.0275 918.75,863.1681 Q918.1094,863.3244 917.4063,863.3244 Q914.9063,863.3244 913.5781,861.6838 Q912.2656,860.0275 912.2656,856.9025 Q912.2656,853.7775 913.5781,852.1213 Q914.9063,850.465 917.4063,850.465 Q918.1094,850.465 918.75,850.6213 Q919.4063,850.7775 919.9688,851.0744 L919.9688,853.7931 Q919.3438,853.215 918.75,852.9494 Q918.1563,852.6681 917.5313,852.6681 Q916.1875,852.6681 915.5,853.7463 Q914.8125,854.8088 914.8125,856.9025 Q914.8125,858.9963 915.5,860.0744 Q916.1875,861.1369 917.5313,861.1369 Q918.1563,861.1369 918.75,860.8713 Q919.3438,860.59 919.9688,860.0119 L919.9688,862.7306 Z " fill="#000000"/><text fill="#000000" font-family="sans-serif" font-size="14" lengthAdjust="spacing" textLength="44" x="931" y="861.9367">QDMH</text><line style="stroke:#555555;stroke-width:0.5;" x1="903" x2="977" y1="873.09" y2="873.09"/><line style="stroke:#555555;stroke-width:0.5;" x1="903" x2="977" y1="881.09" y2="881.09"/></g><!--reverse link Message to Adjust Splitter Msg--><g id="link_Message_Adjust Splitter Msg"><path codeLine="15" d="M541.0068,100.6905 C551.9368,109.4805 549.14,109 557,121 C616.14,211.23 642.43,336.73 653.23,408.24 " fill="none" id="Message-backto-Adjust Splitter Msg" style="stroke:#181818;stroke-width:1.0;"/><polygon fill="none" points="526.98,89.41,537.2466,105.3661,544.767,96.0149,526.98,89.41" style="stroke:#181818;stroke-width:1.0;"/></g><!--reverse link Message to Toggle Component Display Msg--><g id="link_Message_Toggle Component Display Msg"><path codeLine="25" d="M483.343,107.022 C470.313,168.762 438.46,319.71 419.79,408.16 " fill="none" id="Message-backto-Toggle Component Display Msg" style="stroke:#181818;stroke-width:1.0;"/><polygon fill="none" points="487.06,89.41,477.4724,105.7831,489.2137,108.261,487.06,89.41" style="stroke:#181818;stroke-width:1.0;"/></g><!--reverse link Message to Reset Manual Layout Msg--><g id="link_Message_Reset Manual Layout Msg"><path codeLine="33" d="M426.3599,74.3672 C366.4499,82.6572 286.13,97.01 259,121 C168.13,201.34 142.16,352.76 134.83,424.47 " fill="none" id="Message-backto-Reset Manual Layout Msg" style="stroke:#181818;stroke-width:1.0;"/><polygon fill="none" points="444.19,71.9,425.5375,68.4239,427.1823,80.3106,444.19,71.9" style="stroke:#181818;stroke-width:1.0;"/></g><!--reverse link State Actor to Engine--><g id="link_State Actor_Engine"><path codeLine="73" d="M940,107.41 C940,124.99 940,133.23 940,163.82 " fill="none" id="State Actor-backto-Engine" style="stroke:#181818;stroke-width:1.0;"/><polygon fill="none" points="940,89.41,934,107.41,946,107.41,940,89.41" style="stroke:#181818;stroke-width:1.0;"/></g><!--reverse link Engine to Message Enqueuer--><g id="link_Engine_Message Enqueuer"><path codeLine="74" d="M792.7496,154.1461 C781.1596,139.0261 776.11,134.19 763,121 C750.23,108.15 733.84,97.64 717.82,89.37 " fill="none" id="Engine-backto-Message Enqueuer" style="stroke:#181818;stroke-width:1.0;"/><polygon fill="#181818" points="800.05,163.67,799.5744,156.4746,792.7496,154.1461,793.2252,161.3415,800.05,163.67" style="stroke:#181818;stroke-width:1.0;"/></g><!--reverse link Engine to QDMH--><g id="link_Engine_QDMH"><path codeLine="75" d="M940,778.46 C940,808.96 940,823.12 940,840.66 " fill="none" id="Engine-backto-QDMH" style="stroke:#181818;stroke-width:1.0;"/><polygon fill="#181818" points="940,766.46,936,772.46,940,778.46,944,772.46,940,766.46" style="stroke:#181818;stroke-width:1.0;"/></g><!--SRC=[hLLRRzem57xFhx3eoxQAgNlODA6zSAiQ2Tf2A7kiJ78IN1mxywKLeltlEqwWKCYbcng45Fjyzhb-NpGO8cWAEgCX191HHOrKfEFf5HDkbP8-frhtQBXAbBGYwakEWBFB_3c1IHM1saA-vyynv58AimLSvCynu0eetd7YyEU5-ta7Q2Cp_9E5D4Qc968AGiEay49t2saDHS84VEMFd2qwtUZ1QaE2Z3DZG96nJbfausrY1Znw8UrNWozYIJeO2S917G2MyWdtUr9oeCBRQ4CD2r_89WMpb8Wu3q14vCZFfy_U7Z2GkFHUl5OtT3M-n1pWIQfL4MBM6OFMD84M-VNSRhyZViyhJNKcauG3wSiqamA48GEcCqxN9pdx4LePhh3V932AYUIVywrozc69rsPJKO4fQ1phCHMMSZAYQsdDQ_8LUPGS-R0KgiAfYBvO77RgdEcfbEQm7JjB03mc4xICvWLxzgO-vHnRMsfiTpESf90wlc157NEaMYFobfhb_egvVp-56BTNe_dDuc7kxqt3Hso6Bc7A-HGogGoPMB1G6jWjH2nHu8n3OLDoz-r7DP_qMeHBCWCEQC0G1w13nJBNX3m4rwMAixx0k6BKDJSzASMTfXF_vMP4hGkn2JQnB5m5Xc9fcg01ZQ4t6pQ7ctCZiDZBTIFuxcxMZDoopHVQA9iUyVaKtbz2k2AnAv9IKkaQzrsB8btCMsFwQnoe54jbh6u4tsIGVxBkhv6HDRZTqDLsNvkcQx2AJP3Vp0XKWsfOkw-06YXIG-M9GO48GTU2h-695CmgXmLWRFP6ifeahUvJrRECHmLlt-o_H-xFRXNiIE4BziRfMM0NsZ1ZCQDSIRUgwfgztTafwi5MgQfkPT8h5yyl3b-lrIW-Vvn6gTex9eFnrUwWUtUg_HS0]--></g></svg>