<?xml version="1.0" encoding="us-ascii" standalone="no"?><svg xmlns="http://www.w3.org/2000/svg" xmlns:xlink="http://www.w3.org/1999/xlink" contentStyleType="text/css" height="626px" preserveAspectRatio="none" style="width:337px;height:626px;background:#FFFFFF;" version="1.1" viewBox="0 0 337 626" width="337px" zoomAndPan="magnify"><defs/><g><!--cluster Fault Handler.lvlib--><g id="cluster_Fault Handler.lvlib"><path d="M8.5,129 L149.5,129 A3.75,3.75 0 0 1 152,131.5 L159,151.2969 L327.5,151.2969 A2.5,2.5 0 0 1 330,153.7969 L330,616.62 A2.5,2.5 0 0 1 327.5,619.12 L8.5,619.12 A2.5,2.5 0 0 1 6,616.62 L6,131.5 A2.5,2.5 0 0 1 8.5,129 " fill="none" style="stroke:#000000;stroke-width:1.5;"/><line style="stroke:#000000;stroke-width:1.5;" x1="6" x2="159" y1="151.2969" y2="151.2969"/><text fill="#000000" font-family="sans-serif" font-size="14" font-weight="bold" lengthAdjust="spacing" textLength="140" x="10" y="143.9951">Fault Handler.lvlib</text></g><!--cluster Bottom Panel.lvlibp--><g id="cluster_Bottom Panel.lvlibp"><path d="M87.5,6 L238.5,6 A3.75,3.75 0 0 1 241,8.5 L248,28.2969 L248.5,28.2969 A2.5,2.5 0 0 1 251,30.7969 L251,102.5 A2.5,2.5 0 0 1 248.5,105 L87.5,105 A2.5,2.5 0 0 1 85,102.5 L85,8.5 A2.5,2.5 0 0 1 87.5,6 " fill="none" style="stroke:#000000;stroke-width:1.5;"/><line style="stroke:#000000;stroke-width:1.5;" x1="85" x2="248" y1="28.2969" y2="28.2969"/><text fill="#000000" font-family="sans-serif" font-size="14" font-weight="bold" lengthAdjust="spacing" textLength="150" x="89" y="20.9951">Bottom Panel.lvlibp</text></g><!--class Fault Handler--><g id="elem_Fault Handler"><rect codeLine="8" fill="#FFFFFF" height="439.125" id="Fault Handler" rx="2.5" ry="2.5" style="stroke:#555555;stroke-width:0.5;" width="293" x="21.5" y="164"/><rect fill="#808080" height="32" rx="2.5" ry="2.5" style="stroke:#808080;stroke-width:0.5;" width="293" x="21.5" y="164"/><rect fill="#808080" height="2.5" style="stroke:#808080;stroke-width:0.5;" width="293" x="21.5" y="193.5"/><rect codeLine="8" fill="none" height="439.125" id="Fault Handler" rx="2.5" ry="2.5" style="stroke:#555555;stroke-width:0.5;" width="293" x="21.5" y="164"/><ellipse cx="118.75" cy="180" fill="#ADD1B2" rx="11" ry="11" style="stroke:#181818;stroke-width:1.0;"/><path d="M121.7188,185.6406 Q121.1406,185.9375 120.5,186.0781 Q119.8594,186.2344 119.1563,186.2344 Q116.6563,186.2344 115.3281,184.5938 Q114.0156,182.9375 114.0156,179.8125 Q114.0156,176.6875 115.3281,175.0313 Q116.6563,173.375 119.1563,173.375 Q119.8594,173.375 120.5,173.5313 Q121.1563,173.6875 121.7188,173.9844 L121.7188,176.7031 Q121.0938,176.125 120.5,175.8594 Q119.9063,175.5781 119.2813,175.5781 Q117.9375,175.5781 117.25,176.6563 Q116.5625,177.7188 116.5625,179.8125 Q116.5625,181.9063 117.25,182.9844 Q117.9375,184.0469 119.2813,184.0469 Q119.9063,184.0469 120.5,183.7813 Q121.0938,183.5 121.7188,182.9219 L121.7188,185.6406 Z " fill="#000000"/><text fill="#000000" font-family="sans-serif" font-size="14" lengthAdjust="spacing" textLength="90" x="139.25" y="184.8467">Fault Handler</text><line style="stroke:#555555;stroke-width:0.5;" x1="22.5" x2="313.5" y1="196" y2="196"/><rect fill="none" height="6" style="stroke:#C82930;stroke-width:1.0;" width="6" x="29.5" y="206.6484"/><text fill="#000000" font-family="sans-serif" font-size="14" lengthAdjust="spacing" textLength="221" x="41.5" y="212.9951">Active Alarms : kLVObjMCListbox</text><rect fill="none" height="6" style="stroke:#C82930;stroke-width:1.0;" width="6" x="29.5" y="222.9453"/><text fill="#000000" font-family="sans-serif" font-size="14" lengthAdjust="spacing" textLength="239" x="41.5" y="229.292">Active Warnings : kLVObjMCListbox</text><rect fill="none" height="6" style="stroke:#C82930;stroke-width:1.0;" width="6" x="29.5" y="239.2422"/><text fill="#000000" font-family="sans-serif" font-size="14" lengthAdjust="spacing" textLength="267" x="41.5" y="245.5889">Faults Tab : kLVObjTabArrayTabControl</text><rect fill="none" height="6" style="stroke:#C82930;stroke-width:1.0;" width="6" x="29.5" y="255.5391"/><text fill="#000000" font-family="sans-serif" font-size="14" lengthAdjust="spacing" textLength="167" x="41.5" y="261.8857">Alarm Log : kLVObjString</text><rect fill="none" height="6" style="stroke:#C82930;stroke-width:1.0;" width="6" x="29.5" y="271.8359"/><text fill="#000000" font-family="sans-serif" font-size="14" lengthAdjust="spacing" textLength="185" x="41.5" y="278.1826">Warning Log : kLVObjString</text><rect fill="none" height="6" style="stroke:#C82930;stroke-width:1.0;" width="6" x="29.5" y="288.1328"/><text fill="#000000" font-family="sans-serif" font-size="14" lengthAdjust="spacing" textLength="155" x="41.5" y="294.4795">Alarm Report : NoType</text><rect fill="none" height="6" style="stroke:#C82930;stroke-width:1.0;" width="6" x="29.5" y="304.4297"/><text fill="#000000" font-family="sans-serif" font-size="14" lengthAdjust="spacing" textLength="173" x="41.5" y="310.7764">Warning Report : NoType</text><rect fill="none" height="6" style="stroke:#C82930;stroke-width:1.0;" width="6" x="29.5" y="320.7266"/><text fill="#000000" font-family="sans-serif" font-size="14" lengthAdjust="spacing" textLength="158" x="41.5" y="327.0732">Error State : Enum U16</text><rect fill="none" height="6" style="stroke:#C82930;stroke-width:1.0;" width="6" x="29.5" y="337.0234"/><text fill="#000000" font-family="sans-serif" font-size="14" lengthAdjust="spacing" textLength="145" x="41.5" y="343.3701">Automation : NoType</text><line style="stroke:#555555;stroke-width:0.5;" x1="22.5" x2="313.5" y1="350.6719" y2="350.6719"/><ellipse cx="32.5" cy="364.3203" fill="#84BE84" rx="3" ry="3" style="stroke:#038048;stroke-width:1.0;"/><text fill="#000000" font-family="sans-serif" font-size="14" lengthAdjust="spacing" text-decoration="underline" textLength="191" x="41.5" y="367.667">Add Automation reference()</text><rect fill="#F24D5C" height="6" style="stroke:#C82930;stroke-width:1.0;" width="6" x="29.5" y="377.6172"/><text fill="#000000" font-family="sans-serif" font-size="14" lengthAdjust="spacing" text-decoration="underline" textLength="90" x="41.5" y="383.9639">Clear Errors()</text><rect fill="#F24D5C" height="6" style="stroke:#C82930;stroke-width:1.0;" width="6" x="29.5" y="393.9141"/><text fill="#000000" font-family="sans-serif" font-size="14" lengthAdjust="spacing" text-decoration="underline" textLength="108" x="41.5" y="400.2607">Log Error Data()</text><rect fill="#F24D5C" height="6" style="stroke:#C82930;stroke-width:1.0;" width="6" x="29.5" y="410.2109"/><text fill="#000000" font-family="sans-serif" font-size="14" lengthAdjust="spacing" text-decoration="underline" textLength="114" x="41.5" y="416.5576">Refresh Alarms()</text><rect fill="#F24D5C" height="6" style="stroke:#C82930;stroke-width:1.0;" width="6" x="29.5" y="426.5078"/><text fill="#000000" font-family="sans-serif" font-size="14" lengthAdjust="spacing" text-decoration="underline" textLength="123" x="41.5" y="432.8545">Determine State()</text><rect fill="#F24D5C" height="6" style="stroke:#C82930;stroke-width:1.0;" width="6" x="29.5" y="442.8047"/><text fill="#000000" font-family="sans-serif" font-size="14" lengthAdjust="spacing" text-decoration="underline" textLength="85" x="41.5" y="449.1514">Open Logs()</text><rect fill="#F24D5C" height="6" style="stroke:#C82930;stroke-width:1.0;" width="6" x="29.5" y="459.1016"/><text fill="#000000" font-family="sans-serif" font-size="14" lengthAdjust="spacing" text-decoration="underline" textLength="163" x="41.5" y="465.4482">Terminate Automation()</text><rect fill="#F24D5C" height="6" style="stroke:#C82930;stroke-width:1.0;" width="6" x="29.5" y="475.3984"/><text fill="#000000" font-family="sans-serif" font-size="14" lengthAdjust="spacing" text-decoration="underline" textLength="117" x="41.5" y="481.7451">Refresh Display()</text><rect fill="#F24D5C" height="6" style="stroke:#C82930;stroke-width:1.0;" width="6" x="29.5" y="491.6953"/><text fill="#000000" font-family="sans-serif" font-size="14" lengthAdjust="spacing" text-decoration="underline" textLength="151" x="41.5" y="498.042">Send Toggle Display()</text><rect fill="#F24D5C" height="6" style="stroke:#C82930;stroke-width:1.0;" width="6" x="29.5" y="507.9922"/><text fill="#000000" font-family="sans-serif" font-size="14" lengthAdjust="spacing" text-decoration="underline" textLength="155" x="41.5" y="514.3389">Update System State()</text><rect fill="#F24D5C" height="6" style="stroke:#C82930;stroke-width:1.0;" width="6" x="29.5" y="524.2891"/><text fill="#000000" font-family="sans-serif" font-size="14" lengthAdjust="spacing" text-decoration="underline" textLength="113" x="41.5" y="530.6357">Clear Warnings()</text><rect fill="#F24D5C" height="6" style="stroke:#C82930;stroke-width:1.0;" width="6" x="29.5" y="540.5859"/><text fill="#000000" font-family="sans-serif" font-size="14" lengthAdjust="spacing" text-decoration="underline" textLength="131" x="41.5" y="546.9326">Log Warning Data()</text><rect fill="#F24D5C" height="6" style="stroke:#C82930;stroke-width:1.0;" width="6" x="29.5" y="556.8828"/><text fill="#000000" font-family="sans-serif" font-size="14" lengthAdjust="spacing" text-decoration="underline" textLength="132" x="41.5" y="563.2295">Refresh Warnings()</text><rect fill="#F24D5C" height="6" style="stroke:#C82930;stroke-width:1.0;" width="6" x="29.5" y="573.1797"/><text fill="#000000" font-family="sans-serif" font-size="14" lengthAdjust="spacing" text-decoration="underline" textLength="119" x="41.5" y="579.5264">Post Launch Init()</text><polygon fill="#FFFF44" points="32.5,587.4766,36.5,591.4766,32.5,595.4766,28.5,591.4766" style="stroke:#B38D22;stroke-width:1.0;"/><text fill="#000000" font-family="sans-serif" font-size="14" lengthAdjust="spacing" textLength="83" x="41.5" y="595.8232">Actor Core()</text></g><!--class Bottom--><g id="elem_Bottom"><rect fill="#FFFFFF" height="48" id="Bottom" rx="2.5" ry="2.5" style="stroke:#555555;stroke-width:0.5;" width="83" x="126.5" y="41"/><rect fill="#808080" height="32" rx="2.5" ry="2.5" style="stroke:#808080;stroke-width:0.5;" width="83" x="126.5" y="41"/><rect fill="#808080" height="2.5" style="stroke:#808080;stroke-width:0.5;" width="83" x="126.5" y="70.5"/><rect fill="none" height="48" id="Bottom" rx="2.5" ry="2.5" style="stroke:#555555;stroke-width:0.5;" width="83" x="126.5" y="41"/><ellipse cx="141.5" cy="57" fill="#ADD1B2" rx="11" ry="11" style="stroke:#181818;stroke-width:1.0;"/><path d="M144.4688,62.6406 Q143.8906,62.9375 143.25,63.0781 Q142.6094,63.2344 141.9063,63.2344 Q139.4063,63.2344 138.0781,61.5938 Q136.7656,59.9375 136.7656,56.8125 Q136.7656,53.6875 138.0781,52.0313 Q139.4063,50.375 141.9063,50.375 Q142.6094,50.375 143.25,50.5313 Q143.9063,50.6875 144.4688,50.9844 L144.4688,53.7031 Q143.8438,53.125 143.25,52.8594 Q142.6563,52.5781 142.0313,52.5781 Q140.6875,52.5781 140,53.6563 Q139.3125,54.7188 139.3125,56.8125 Q139.3125,58.9063 140,59.9844 Q140.6875,61.0469 142.0313,61.0469 Q142.6563,61.0469 143.25,60.7813 Q143.8438,60.5 144.4688,59.9219 L144.4688,62.6406 Z " fill="#000000"/><text fill="#000000" font-family="sans-serif" font-size="14" lengthAdjust="spacing" textLength="51" x="155.5" y="61.8467">Bottom</text><line style="stroke:#555555;stroke-width:0.5;" x1="127.5" x2="208.5" y1="73" y2="73"/><line style="stroke:#555555;stroke-width:0.5;" x1="127.5" x2="208.5" y1="81" y2="81"/></g><!--reverse link Bottom to Fault Handler--><g id="link_Bottom_Fault Handler"><path codeLine="35" d="M168,107.27 C168,125.12 168,133.74 168,163.77 " fill="none" id="Bottom-backto-Fault Handler" style="stroke:#181818;stroke-width:1.0;"/><polygon fill="none" points="168,89.27,162,107.27,174,107.27,168,89.27" style="stroke:#181818;stroke-width:1.0;"/></g><!--SRC=[ZPDHRzCm4CVVyobEtGi85Oq74AhsqgMhXbJOj7JmV4ckgQbZH-VBH5NwtR6JTWjh6d0KER5__j_vRvyZ0OCbkGepIgX2Hh4CayXjb0b_9SGQdRl6R5EmhKqUM-s1YtdJJZ3BEV41-TYqryZS6Za0bqrx3TmIUesJW9ylmnDrQB6LVo6r8hQ4N35bego9ig02epdMMk0MJQw9t-idhTB9NsCZs4MxbIATxs4yzMkV2AOQkNGmWStY-rtwyskyK4vI- -i4_85ib2a6qIQQWoMcpvJ_dZBZrlUnDuAjxYY7sB2mnJET2FiOByGXw23JgZnGPLayzCqkjnMTIfm5RfYztOcWa9-zCNK9Zny-TVHhxpO6epkBdSTLjeTTIRAs7ditpNFee4mhOZ8PlNdRGuzZJSZGX7RzHDXoczeC1VkP1renkVNX4FkP6GbngGorM-o7xYeomUGp6ij68HZqiiFXZ6RALHgt_L129eUbBGfDm-1ZbOUWoTO9bKFvjtOUh-XvGu-NuT-M3clTMoUmmDfaQ_XYb0JgE7dX2yQVMcmv91ljez5rMx3tQ4YtTLbDsh4HNFqUZ_-dTACe-WC0]--></g></svg>