<?xml version="1.0" encoding="us-ascii" standalone="no"?><svg xmlns="http://www.w3.org/2000/svg" xmlns:xlink="http://www.w3.org/1999/xlink" contentStyleType="text/css" height="350px" preserveAspectRatio="none" style="width:309px;height:350px;background:#FFFFFF;" version="1.1" viewBox="0 0 309 350" width="309px" zoomAndPan="magnify"><defs/><g><!--cluster Docking.lvlib--><g id="cluster_Docking.lvlib"><path d="M8.5,196 L108.5,196 A3.75,3.75 0 0 1 111,198.5 L118,218.2969 L299.5,218.2969 A2.5,2.5 0 0 1 302,220.7969 L302,341.39 A2.5,2.5 0 0 1 299.5,343.89 L8.5,343.89 A2.5,2.5 0 0 1 6,341.39 L6,198.5 A2.5,2.5 0 0 1 8.5,196 " fill="none" style="stroke:#000000;stroke-width:1.5;"/><line style="stroke:#000000;stroke-width:1.5;" x1="6" x2="118" y1="218.2969" y2="218.2969"/><text fill="#000000" font-family="sans-serif" font-size="14" font-weight="bold" lengthAdjust="spacing" textLength="99" x="10" y="210.9951">Docking.lvlib</text></g><!--cluster Engine.lvlibp--><g id="cluster_Engine.lvlibp"><path d="M47.5,6 L147.5,6 A3.75,3.75 0 0 1 150,8.5 L157,28.2969 L261.5,28.2969 A2.5,2.5 0 0 1 264,30.7969 L264,169.5 A2.5,2.5 0 0 1 261.5,172 L47.5,172 A2.5,2.5 0 0 1 45,169.5 L45,8.5 A2.5,2.5 0 0 1 47.5,6 " fill="none" style="stroke:#000000;stroke-width:1.5;"/><line style="stroke:#000000;stroke-width:1.5;" x1="45" x2="157" y1="28.2969" y2="28.2969"/><text fill="#000000" font-family="sans-serif" font-size="14" font-weight="bold" lengthAdjust="spacing" textLength="99" x="49" y="20.9951">Engine.lvlibp</text></g><!--cluster Managed Actor.lvlib--><g id="cluster_Managed Actor.lvlib"><path d="M71.5,49 L227.5,49 A3.75,3.75 0 0 1 230,51.5 L237,71.2969 L237.5,71.2969 A2.5,2.5 0 0 1 240,73.7969 L240,145.5 A2.5,2.5 0 0 1 237.5,148 L71.5,148 A2.5,2.5 0 0 1 69,145.5 L69,51.5 A2.5,2.5 0 0 1 71.5,49 " fill="none" style="stroke:#000000;stroke-width:1.5;"/><line style="stroke:#000000;stroke-width:1.5;" x1="69" x2="237" y1="71.2969" y2="71.2969"/><text fill="#000000" font-family="sans-serif" font-size="14" font-weight="bold" lengthAdjust="spacing" textLength="155" x="73" y="63.9951">Managed Actor.lvlib</text></g><!--class Docking--><g id="elem_Docking"><rect codeLine="8" fill="#FFFFFF" height="96.8906" id="Docking" rx="2.5" ry="2.5" style="stroke:#555555;stroke-width:0.5;" width="263" x="22.5" y="231"/><rect fill="#808080" height="32" rx="2.5" ry="2.5" style="stroke:#808080;stroke-width:0.5;" width="263" x="22.5" y="231"/><rect fill="#808080" height="2.5" style="stroke:#808080;stroke-width:0.5;" width="263" x="22.5" y="260.5"/><rect codeLine="8" fill="none" height="96.8906" id="Docking" rx="2.5" ry="2.5" style="stroke:#555555;stroke-width:0.5;" width="263" x="22.5" y="231"/><ellipse cx="121.25" cy="247" fill="#ADD1B2" rx="11" ry="11" style="stroke:#181818;stroke-width:1.0;"/><path d="M124.2188,252.6406 Q123.6406,252.9375 123,253.0781 Q122.3594,253.2344 121.6563,253.2344 Q119.1563,253.2344 117.8281,251.5938 Q116.5156,249.9375 116.5156,246.8125 Q116.5156,243.6875 117.8281,242.0313 Q119.1563,240.375 121.6563,240.375 Q122.3594,240.375 123,240.5313 Q123.6563,240.6875 124.2188,240.9844 L124.2188,243.7031 Q123.5938,243.125 123,242.8594 Q122.4063,242.5781 121.7813,242.5781 Q120.4375,242.5781 119.75,243.6563 Q119.0625,244.7188 119.0625,246.8125 Q119.0625,248.9063 119.75,249.9844 Q120.4375,251.0469 121.7813,251.0469 Q122.4063,251.0469 123,250.7813 Q123.5938,250.5 124.2188,249.9219 L124.2188,252.6406 Z " fill="#000000"/><text fill="#000000" font-family="sans-serif" font-size="14" lengthAdjust="spacing" textLength="57" x="141.75" y="251.8467">Docking</text><line style="stroke:#555555;stroke-width:0.5;" x1="23.5" x2="284.5" y1="263" y2="263"/><ellipse cx="33.5" cy="276.6484" fill="none" rx="3" ry="3" style="stroke:#038048;stroke-width:1.0;"/><text fill="#000000" font-family="sans-serif" font-size="14" lengthAdjust="spacing" textLength="237" x="42.5" y="279.9951">Splitter Refnum : kLVObjSplitterBar</text><ellipse cx="33.5" cy="292.9453" fill="none" rx="3" ry="3" style="stroke:#038048;stroke-width:1.0;"/><text fill="#000000" font-family="sans-serif" font-size="14" lengthAdjust="spacing" textLength="123" x="42.5" y="296.292">InitialPosition : I32</text><line style="stroke:#555555;stroke-width:0.5;" x1="23.5" x2="284.5" y1="303.5938" y2="303.5938"/><ellipse cx="33.5" cy="317.2422" fill="#84BE84" rx="3" ry="3" style="stroke:#038048;stroke-width:1.0;"/><text fill="#000000" font-family="sans-serif" font-size="14" lengthAdjust="spacing" textLength="105" x="42.5" y="320.5889">Adjust Splitter()</text></g><!--class Managed Actor--><g id="elem_Managed Actor"><rect fill="#FFFFFF" height="48" id="Managed Actor" rx="2.5" ry="2.5" style="stroke:#555555;stroke-width:0.5;" width="136" x="86" y="84"/><rect fill="#808080" height="32" rx="2.5" ry="2.5" style="stroke:#808080;stroke-width:0.5;" width="136" x="86" y="84"/><rect fill="#808080" height="2.5" style="stroke:#808080;stroke-width:0.5;" width="136" x="86" y="113.5"/><rect fill="none" height="48" id="Managed Actor" rx="2.5" ry="2.5" style="stroke:#555555;stroke-width:0.5;" width="136" x="86" y="84"/><ellipse cx="101" cy="100" fill="#ADD1B2" rx="11" ry="11" style="stroke:#181818;stroke-width:1.0;"/><path d="M103.9688,105.6406 Q103.3906,105.9375 102.75,106.0781 Q102.1094,106.2344 101.4063,106.2344 Q98.9063,106.2344 97.5781,104.5938 Q96.2656,102.9375 96.2656,99.8125 Q96.2656,96.6875 97.5781,95.0313 Q98.9063,93.375 101.4063,93.375 Q102.1094,93.375 102.75,93.5313 Q103.4063,93.6875 103.9688,93.9844 L103.9688,96.7031 Q103.3438,96.125 102.75,95.8594 Q102.1563,95.5781 101.5313,95.5781 Q100.1875,95.5781 99.5,96.6563 Q98.8125,97.7188 98.8125,99.8125 Q98.8125,101.9063 99.5,102.9844 Q100.1875,104.0469 101.5313,104.0469 Q102.1563,104.0469 102.75,103.7813 Q103.3438,103.5 103.9688,102.9219 L103.9688,105.6406 Z " fill="#000000"/><text fill="#000000" font-family="sans-serif" font-size="14" lengthAdjust="spacing" textLength="104" x="115" y="104.8467">Managed Actor</text><line style="stroke:#555555;stroke-width:0.5;" x1="87" x2="221" y1="116" y2="116"/><line style="stroke:#555555;stroke-width:0.5;" x1="87" x2="221" y1="124" y2="124"/></g><!--reverse link Managed Actor to Docking--><g id="link_Managed Actor_Docking"><path codeLine="14" d="M154,150.2 C154,175.4 154,198.35 154,230.52 " fill="none" id="Managed Actor-backto-Docking" style="stroke:#181818;stroke-width:1.0;"/><polygon fill="none" points="154,132.2,148,150.2,160,150.2,154,132.2" style="stroke:#181818;stroke-width:1.0;"/></g><!--SRC=[TP31JiCm38RlVWghN41eQ08XeOhBDfYO108nYNkQU2Lh6bU9owNitKbB9s0JlvM3dS_sBqSIzAgcs2XDQsfKKC81SuYLzNrMuyAf6ETALsNWrfi5kmISB0STOHmCXH6v7dI8BDdB24m77G8FfDACeuKtqpxW5otSf8S5Yt2DnWRIOjc3xgTWTiSweUM5-t2soCSimmwwZILdTdY-RfmLeO2ljF5jZJbMZs_FnNPVdwlm0w-y5QlS2qVRRqdmwkeIkfhadVl_cTcsKN3VUte6i8FitfVMqxU79dzINfLaSARJaKTZVsePtdvE9lzv1u0l]--></g></svg>